<svg viewBox="0 0 600 600" xmlns="http://www.w3.org/2000/svg" xmlns:xlink="http://www.w3.org/1999/xlink" id="ICONS" overflow="hidden"><defs/><path d="M357.01 221.19C357.01 216.46 353.16 212.61 348.43 212.61L245.58 212.61 215.58 246.25C215.49 246.35 215.39 246.46 215.29 246.56 214.83 247.02 214.31 247.38 213.76 247.65 212.95 248.05 212.07 248.23 211.2 248.24 210.36 248.24 209.52 248.05 208.74 247.68 208.16 247.4 207.62 247.02 207.14 246.54 207.05 246.45 206.96 246.35 206.87 246.25L176.87 212.61 176.82 212.61C163.15 212.61 150.23 224.08 150.23 236.21L150.23 335.49C150.23 340.22 154.08 344.07 158.81 344.07 163.54 344.07 167.38 340.22 167.38 335.49L167.38 276.48C167.38 273.3 169.95 270.73 173.13 270.73 176.31 270.73 178.88 273.3 178.88 276.48L178.88 466.28C178.88 470.85 185.09 474.86 192.18 474.86 199.27 474.86 205.47 470.85 205.47 466.28L205.47 466.28 205.47 368.22C205.47 365.04 208.04 362.47 211.22 362.47 214.4 362.47 216.97 365.04 216.97 368.22L216.97 466.27 216.97 466.27C216.97 470.84 223.18 474.85 230.26 474.85 237.34 474.85 243.56 470.84 243.56 466.27L243.56 466.27 243.56 235.51C243.56 232.33 246.13 229.76 249.31 229.76L348.42 229.76C353.15 229.76 357 225.91 357 221.18Z" fill="#78BE43"/><path d="M211.22 190.03C222.65 190.03 231.94 177.55 231.94 162.22 231.94 146.89 222.64 134.44 211.22 134.44 199.8 134.44 190.53 146.9 190.53 162.22 190.53 177.54 199.81 190.03 211.22 190.03Z" fill="#78BE43"/><path d="M300 0C134.32 0 0 134.32 0 300 0 465.68 134.32 600 300 600 465.68 600 600 465.68 600 300 600 134.32 465.68 0 300 0ZM211.22 122.94C228.99 122.94 243.44 140.56 243.44 162.22 243.44 183.88 228.98 201.53 211.22 201.53 193.46 201.53 179.03 183.89 179.03 162.22 179.03 140.55 193.47 122.94 211.22 122.94ZM255.07 466.28 255.07 466.28C255.07 477.35 243.95 486.36 230.27 486.36 222.63 486.36 215.78 483.54 211.23 479.12 206.68 483.54 199.83 486.36 192.19 486.36 178.52 486.36 167.39 477.35 167.39 466.28L167.39 353.62C164.79 354.86 161.89 355.57 158.82 355.57 147.75 355.57 138.74 346.56 138.74 335.49L138.74 236.21C138.74 217.51 156.54 201.11 176.83 201.11L179.43 201.11C179.43 201.11 179.51 201.11 179.54 201.11 180.33 201.12 181.09 201.3 181.77 201.6 182.46 201.9 183.1 202.35 183.65 202.93 183.69 202.97 183.73 203.01 183.76 203.05L211.22 233.84 238.7 203.03C238.7 203.03 238.74 203 238.75 202.98 238.98 202.73 239.23 202.5 239.5 202.29 239.54 202.26 239.58 202.23 239.62 202.2 239.88 202.01 240.16 201.84 240.46 201.7 240.5 201.68 240.55 201.66 240.59 201.64 240.88 201.51 241.19 201.4 241.51 201.31 241.55 201.3 241.6 201.29 241.64 201.28 241.95 201.21 242.27 201.16 242.59 201.13 242.64 201.13 242.69 201.13 242.74 201.13 242.82 201.13 242.9 201.12 242.99 201.12L348.71 201.12C348.96 201.12 349.21 201.14 349.45 201.17 360.04 201.71 368.49 210.47 368.49 221.2 368.49 231.93 359.8 240.93 349 241.25 348.81 241.27 348.61 241.28 348.41 241.28L255.05 241.28 255.05 466.29ZM496.14 371.38C496.14 374.56 493.57 377.13 490.39 377.13L365.19 377.13 410 460.95C411.5 463.75 410.44 467.23 407.64 468.73 406.78 469.19 405.85 469.41 404.93 469.41 402.88 469.41 400.89 468.31 399.85 466.37L355.59 383.58 311.33 466.37C309.83 469.17 306.35 470.23 303.55 468.73 300.75 467.23 299.69 463.75 301.19 460.95L346 377.13 272.27 377.13C269.09 377.13 266.52 374.56 266.52 371.38 266.52 368.2 269.09 365.63 272.27 365.63L484.64 365.63 484.64 153.41 272.27 153.41C269.09 153.41 266.52 150.84 266.52 147.66 266.52 144.48 269.09 141.91 272.27 141.91L349.85 141.91 349.85 128.69C349.85 125.51 352.42 122.94 355.6 122.94 358.78 122.94 361.35 125.51 361.35 128.69L361.35 141.91 490.39 141.91C493.57 141.91 496.14 144.48 496.14 147.66L496.14 371.38Z" fill="#78BE43"/></svg>