<svg viewBox="0 0 600 600" xmlns="http://www.w3.org/2000/svg" xmlns:xlink="http://www.w3.org/1999/xlink" id="Layer_2" overflow="hidden"><defs/><g id="ICONS"><path d="M300 0C134.32 0 0 134.32 0 300 0 465.68 134.32 600 300 600 465.68 600 600 465.68 600 300 600 134.32 465.68 0 300 0ZM222.93 413.39C222.93 415.11 222.16 416.74 220.83 417.84L214.21 423.27 217.87 476.57C218.09 479.74 215.7 482.48 212.53 482.7 212.4 482.7 212.26 482.71 212.13 482.71 209.13 482.71 206.61 480.39 206.4 477.35L202.54 421.1C202.41 419.24 203.19 417.44 204.63 416.26L211.44 410.68 211.44 355.7C211.39 355.39 211.36 355.08 211.36 354.77L211.36 339.06C211.36 337.76 210.3 336.7 209 336.7 207.7 336.7 206.64 337.76 206.64 339.06L206.64 354.84C206.64 354.92 206.64 355 206.64 355.08L206.2 365.68C206.07 368.81 203.47 371.26 200.34 371.19 197.21 371.13 194.71 368.57 194.71 365.44L194.71 326.32C194.71 325.02 193.65 323.96 192.35 323.96 191.05 323.96 189.99 325.02 189.99 326.32 189.99 326.54 189.98 326.75 189.95 326.96L189.95 359.7C189.95 362.88 187.38 365.45 184.2 365.45 181.02 365.45 178.45 362.88 178.45 359.7L178.45 326.31C178.45 326.09 178.46 325.88 178.49 325.67L178.49 315.78C178.49 314.48 177.43 313.42 176.13 313.42 174.83 313.42 173.77 314.48 173.77 315.78L173.77 357.82C173.77 361 171.2 363.57 168.02 363.57 164.84 363.57 162.27 361 162.27 357.82L162.27 326.31C162.27 325.01 161.21 323.95 159.91 323.95 158.61 323.95 157.55 325.01 157.55 326.31L157.55 355.03C157.55 355.35 157.52 355.67 157.47 355.98L157.52 362.98C157.55 363.21 157.56 363.45 157.57 363.69L157.62 376.55C165.96 380.49 172.73 387.33 176.53 395.83 177.83 398.73 176.53 402.13 173.63 403.43 172.87 403.77 172.07 403.93 171.28 403.93 169.08 403.93 166.98 402.66 166.03 400.53 162.93 393.6 157.03 388.22 149.84 385.78 149.58 385.69 149.33 385.58 149.09 385.46 144.86 383.8 142.46 382.84 142 382.63 139.2 381.34 132.81 372.7 130.19 369.05 130.04 368.84 129.9 368.61 129.78 368.38 129.37 367.61 128.71 367.31 128.36 367.2 128 367.09 127.29 366.96 126.52 367.37 125.75 367.78 125.45 368.44 125.34 368.79 125.24 369.11 125.13 369.71 125.39 370.38L136.93 386.52 164.62 416.94C165.68 418.1 166.21 419.64 166.1 421.21L162.2 477.37C161.98 480.54 159.25 482.93 156.07 482.71 152.9 482.49 150.51 479.74 150.73 476.58L154.46 422.88 128.2 394.03C128.05 393.86 127.91 393.69 127.78 393.5L115.75 376.67C115.6 376.46 115.46 376.23 115.34 376 113.61 372.71 113.26 368.94 114.36 365.39 115.46 361.84 117.88 358.93 121.17 357.2 124.46 355.47 128.22 355.12 131.77 356.22 135.18 357.28 137.99 359.55 139.74 362.63 141.75 365.42 144.34 368.7 146.11 370.82L146.09 366.46C146.07 366.26 146.06 366.06 146.05 365.86L145.97 355.09C145.97 354.74 146 354.39 146.05 354.06L146.05 326.33C146.05 318.69 152.27 312.47 159.91 312.47 160.83 312.47 161.74 312.56 162.61 312.73 164.01 306.56 169.54 301.94 176.13 301.94 182.72 301.94 188.25 306.56 189.65 312.73 190.52 312.56 191.43 312.47 192.35 312.47 199.71 312.47 205.75 318.24 206.18 325.49 207.09 325.3 208.03 325.2 209 325.2 216.64 325.2 222.86 331.42 222.86 339.06L222.86 353.84C222.91 354.15 222.94 354.46 222.94 354.77L222.94 413.4ZM359.43 309.56C359.43 311.28 358.66 312.91 357.33 314.01L343.28 325.53 350.2 476.69C350.34 479.86 347.89 482.55 344.72 482.7 341.57 482.85 338.86 480.39 338.71 477.22L331.66 323.18C331.58 321.37 332.36 319.62 333.76 318.47L347.93 306.85 347.93 203.77C347.83 203.35 347.78 202.92 347.78 202.48L347.78 173.78C347.78 168.78 343.71 164.72 338.72 164.72 333.73 164.72 329.66 168.79 329.66 173.78L329.66 202.6C329.66 202.68 329.66 202.76 329.66 202.84L328.86 222.21C328.73 225.34 326.1 227.78 323 227.72 319.87 227.66 317.37 225.1 317.37 221.97L317.37 150.52C317.37 145.52 313.3 141.46 308.31 141.46 303.32 141.46 299.25 145.53 299.25 150.52 299.25 150.81 299.22 151.09 299.18 151.37L299.18 211.51C299.18 214.69 296.61 217.26 293.43 217.26 290.25 217.26 287.68 214.69 287.68 211.51L287.68 150.53C287.68 150.24 287.71 149.96 287.75 149.68L287.75 131.3C287.75 126.3 283.68 122.24 278.69 122.24 273.7 122.24 269.63 126.31 269.63 131.3L269.63 208.09C269.63 211.27 267.06 213.84 263.88 213.84 260.7 213.84 258.13 211.27 258.13 208.09L258.13 150.53C258.13 145.53 254.06 141.47 249.07 141.47 244.08 141.47 240.01 145.54 240.01 150.53L240.01 202.99C240.01 203.43 239.96 203.87 239.86 204.28L239.96 217.86C240.01 218.17 240.04 218.48 240.04 218.8L240.14 245.36C255.6 251.83 268.19 264.03 275.08 279.42 276.38 282.32 275.08 285.72 272.18 287.02 271.42 287.36 270.62 287.52 269.83 287.52 267.63 287.52 265.53 286.25 264.58 284.12 258.37 270.25 246.57 259.5 232.19 254.63 231.85 254.51 231.53 254.37 231.22 254.19 226.99 252.53 219.34 249.51 218.32 249.05 213.99 247.06 198.78 226 198.63 225.79 198.48 225.58 198.34 225.35 198.22 225.12 195.86 220.65 190.31 218.92 185.84 221.28 183.67 222.42 182.08 224.34 181.36 226.67 180.67 228.9 180.84 231.26 181.85 233.35L203.38 263.46 254.14 319.23C255.17 320.36 255.7 321.84 255.63 323.37L248.51 477.23C248.37 480.31 245.82 482.71 242.77 482.71 242.68 482.71 242.59 482.71 242.5 482.71 239.33 482.56 236.88 479.87 237.02 476.7L244.03 325.22 194.65 270.96C194.5 270.79 194.36 270.62 194.23 270.43L172.25 239.69C172.1 239.48 171.96 239.26 171.84 239.02 169.27 234.14 168.75 228.54 170.39 223.27 172.03 218 175.62 213.68 180.5 211.11 190.46 205.87 202.79 209.59 208.21 219.39 213.86 227.26 221.51 236.64 223.72 238.84 224.64 239.22 226.44 239.93 228.64 240.8L228.58 223.52C228.54 223.25 228.52 222.98 228.52 222.7L228.38 203.03C228.38 202.57 228.43 202.11 228.54 201.66L228.54 150.52C228.54 139.18 237.76 129.96 249.1 129.96 252.35 129.96 255.43 130.72 258.16 132.07L258.16 131.29C258.16 119.95 267.38 110.73 278.72 110.73 290.06 110.73 299.28 119.95 299.28 131.29L299.28 132.07C302.02 130.72 305.09 129.96 308.34 129.96 319.68 129.96 328.9 139.18 328.9 150.52L328.9 155.74C331.83 154.13 335.19 153.22 338.76 153.22 350.1 153.22 359.32 162.44 359.32 173.78L359.32 201.19C359.42 201.61 359.47 202.04 359.47 202.48L359.47 309.57ZM504.73 295.09C504.61 295.32 504.47 295.54 504.32 295.76L488.57 317.78C488.44 317.96 488.3 318.14 488.15 318.31L453.22 356.69 458.22 476.71C458.35 479.88 455.89 482.56 452.71 482.69 452.63 482.69 452.55 482.69 452.47 482.69 449.4 482.69 446.86 480.27 446.73 477.18L441.63 354.79C441.57 353.28 442.1 351.8 443.12 350.68L479.42 310.8 494.7 289.43C495.19 288.33 495.27 287.11 494.91 285.95 494.52 284.69 493.66 283.66 492.49 283.05 491.32 282.44 489.99 282.31 488.73 282.7 487.47 283.09 486.44 283.95 485.82 285.11 485.7 285.34 485.56 285.57 485.41 285.78 484.96 286.41 474.26 301.32 470.67 302.97 469.92 303.31 464.87 305.31 461.4 306.67 461.14 306.81 460.86 306.93 460.57 307.03 450.7 310.38 442.59 317.76 438.33 327.28 437.37 329.42 435.28 330.68 433.08 330.68 432.29 330.68 431.5 330.52 430.73 330.18 427.83 328.88 426.53 325.48 427.83 322.58 432.78 311.51 441.72 302.67 452.72 297.77L452.79 279.81C452.79 279.54 452.81 279.27 452.85 279.01L452.92 269.57C452.85 269.22 452.82 268.85 452.82 268.48L452.82 230.9C452.82 228.22 450.64 226.04 447.96 226.04 445.28 226.04 443.1 228.22 443.1 230.9L443.1 272.13C443.1 275.31 440.53 277.88 437.35 277.88 434.17 277.88 431.6 275.31 431.6 272.13L431.6 217.12C431.6 214.44 429.42 212.26 426.74 212.26 424.06 212.26 421.88 214.44 421.88 217.12L421.88 230.18C421.91 230.42 421.93 230.66 421.93 230.9L421.93 274.59C421.93 277.77 419.36 280.34 416.18 280.34 413 280.34 410.43 277.77 410.43 274.59L410.43 231.62C410.4 231.38 410.38 231.14 410.38 230.9 410.38 228.22 408.2 226.04 405.52 226.04 402.84 226.04 400.66 228.22 400.66 230.9L400.66 282.08C400.66 285.21 398.16 287.76 395.03 287.83 391.9 287.9 389.3 285.45 389.17 282.32L388.6 268.45C388.6 268.37 388.6 268.29 388.6 268.21L388.6 247.56C388.6 244.88 386.42 242.7 383.74 242.7 381.06 242.7 378.88 244.88 378.88 247.56L378.88 268.12C378.88 268.49 378.84 268.85 378.78 269.21L378.78 342.12 388.34 349.96C389.74 351.11 390.51 352.84 390.44 354.64L385.39 477.15C385.26 480.32 382.56 482.79 379.41 482.66 376.24 482.53 373.77 479.85 373.9 476.68L378.83 357.03 369.39 349.29C368.06 348.2 367.29 346.57 367.29 344.84L367.29 268.12C367.29 267.75 367.33 267.39 367.39 267.03L367.39 247.56C367.39 238.54 374.73 231.2 383.75 231.2 385.65 231.2 387.48 231.53 389.18 232.13L389.18 230.9C389.18 221.88 396.52 214.54 405.54 214.54 407.27 214.54 408.94 214.81 410.5 215.31 411.41 207.14 418.35 200.76 426.76 200.76 435.17 200.76 442.12 207.14 443.02 215.31 444.59 214.81 446.25 214.54 447.98 214.54 457 214.54 464.34 221.88 464.34 230.9L464.34 267.36C464.42 267.74 464.45 268.13 464.45 268.53L464.35 282.62C464.35 282.85 464.33 283.08 464.3 283.31L464.26 293.17C464.63 293.02 464.95 292.89 465.21 292.79 466.97 290.94 472.11 284.59 475.87 279.36 477.94 275.67 481.28 272.96 485.33 271.7 489.53 270.4 493.97 270.81 497.86 272.85 501.75 274.89 504.6 278.33 505.9 282.52 507.2 286.71 506.79 291.16 504.75 295.05Z" fill="#78BE43"/></g></svg>