<svg viewBox="0 0 600 600" xmlns="http://www.w3.org/2000/svg" xmlns:xlink="http://www.w3.org/1999/xlink" id="ICONS" overflow="hidden"><defs/><path d="M332.06 159.19C331.45 157.72 330.97 156.21 330.61 154.68L234.61 255.12 268.69 337.41 407.59 340.54C406.76 339.21 406.04 337.8 405.43 336.33L332.06 159.2Z" fill="#78BE43"/><path d="M429.35 232.64 422.29 215.58 409.73 211.16 423.6 244.65 429.35 232.64Z" fill="#78BE43"/><rect x="228.81" y="361.26" width="16.97" height="13.96" fill="#78BE43" transform="matrix(0.92388 -0.382683 0.382683 0.92388 -122.85 118.83)"/><path d="M223.7 387.65 223.7 387.65C223.7 387.65 216.32 369.83 216.32 369.83L178.44 385.52 215.39 474.72C216.94 478.46 220.26 481.28 224.74 482.66 229.61 484.16 235.19 483.79 240.43 481.61 245.68 479.44 249.88 475.76 252.27 471.26 254.46 467.12 254.82 462.78 253.27 459.03L223.7 387.65 223.7 387.65Z" fill="#78BE43"/><path d="M417.91 260.96C417.91 260.96 417.91 260.96 417.91 260.96L394.18 203.66 394.18 203.66 369.36 143.74C366.01 135.65 357.28 131.55 349.91 134.6 346.91 135.84 344.53 138.09 343.01 141.1 342.97 141.21 342.94 141.31 342.89 141.42 340.94 145.52 340.87 150.39 342.69 154.79L416.06 331.92C417.88 336.32 421.38 339.71 425.65 341.23 425.76 341.27 425.85 341.33 425.96 341.37 429.17 342.42 432.43 342.33 435.44 341.08 435.44 341.08 435.44 341.08 435.44 341.08 442.81 338.03 446.08 328.96 442.73 320.87L417.91 260.95Z" fill="#78BE43"/><path d="M224.75 261.36 127.45 301.67C110.05 308.88 103.19 332.37 112.16 354.04 116.58 364.72 124.13 373.31 133.41 378.23 142.32 382.95 151.77 383.67 160 380.26L257.31 339.95 224.76 261.36ZM167.3 364.3C162.57 366.26 157.88 367.24 153.41 367.24 150.23 367.24 147.16 366.74 144.27 365.75 136.5 363.08 130.44 356.94 126.73 348 125.51 345.07 126.91 341.7 129.84 340.49 132.77 339.27 136.14 340.67 137.35 343.6 139.79 349.49 143.38 353.29 148 354.88 152.29 356.35 157.43 355.94 162.89 353.68 165.82 352.46 169.19 353.86 170.4 356.79 171.62 359.72 170.22 363.09 167.29 364.3ZM193.58 359.55C192.16 360.14 190.67 360.43 189.18 360.43 187.69 360.43 186.2 360.14 184.78 359.55 181.94 358.37 179.73 356.16 178.55 353.32 176.12 347.46 178.92 340.71 184.78 338.28 187.62 337.1 190.75 337.1 193.59 338.28 196.43 339.46 198.64 341.67 199.82 344.51L199.82 344.51C202.25 350.37 199.45 357.12 193.59 359.55Z" fill="#78BE43"/><path d="M300 0C134.32 0 0 134.32 0 300 0 465.68 134.32 600 300 600 465.68 600 600 465.68 600 300 600 134.32 465.68 0 300 0ZM439.84 351.71C439.84 351.71 439.84 351.71 439.84 351.71 436.82 352.96 433.6 353.59 430.36 353.59 427.78 353.59 425.19 353.17 422.66 352.38L265.91 348.84 253.1 354.14 260.64 372.35C261.86 375.28 260.46 378.65 257.53 379.86L236.54 388.56 263.91 454.63C266.8 461.6 266.28 469.41 262.45 476.64 258.81 483.5 252.56 489.04 244.85 492.23 240.32 494.11 235.57 495.05 230.93 495.05 227.66 495.05 224.45 494.58 221.38 493.64 213.56 491.24 207.67 486.08 204.78 479.11L167.67 389.52 164.41 390.87C159.55 392.88 154.43 393.88 149.23 393.88 142.16 393.88 134.95 392.03 128.03 388.37 116.4 382.21 106.99 371.57 101.54 358.42 90.14 330.89 99.79 300.66 123.05 291.03L224.55 248.99 332.9 135.64C335.66 130.34 340.1 126.21 345.52 123.96 358.75 118.48 374.21 125.37 379.99 139.32L403.83 196.87 428.54 205.57C430.08 206.11 431.32 207.28 431.94 208.79L440.97 230.59C441.59 232.1 441.55 233.8 440.84 235.27L429.52 258.9 453.36 316.45C459.14 330.4 453.08 346.21 439.85 351.69ZM459.51 130.92 446.39 174.95C445.65 177.45 443.36 179.06 440.88 179.06 440.34 179.06 439.78 178.98 439.24 178.82 436.2 177.91 434.46 174.71 435.37 171.67L448.49 127.64C449.4 124.6 452.6 122.86 455.64 123.77 458.68 124.68 460.42 127.88 459.51 130.92ZM517.86 273.98C516.82 275.9 514.84 277 512.8 277 511.88 277 510.94 276.78 510.07 276.31L469.66 254.45C466.87 252.94 465.83 249.45 467.34 246.66 468.85 243.87 472.34 242.83 475.13 244.34L515.54 266.2C518.33 267.71 519.37 271.2 517.86 273.99ZM524.78 189.35 472.08 211.18C471.36 211.48 470.62 211.62 469.88 211.62 467.62 211.62 465.48 210.28 464.57 208.07 463.36 205.14 464.75 201.77 467.68 200.56L520.38 178.73C523.31 177.52 526.68 178.91 527.89 181.84 529.11 184.77 527.71 188.14 524.78 189.35Z" fill="#78BE43"/></svg>