<svg viewBox="0 0 600 600" xmlns="http://www.w3.org/2000/svg" xmlns:xlink="http://www.w3.org/1999/xlink" id="Layer_2" overflow="hidden"><defs/><g id="ICONS"><g><path d="M350.25 194.19C370.04 213.88 391.56 227.35 407.82 230.22 409.1 230.45 410.23 230.22 410.99 229.57 411.75 228.92 412.16 227.85 412.13 226.55 411.78 204.2 400.82 180.67 382.08 162.01 363.33 143.34 339.79 132.53 317.51 132.38 316.23 132.38 315.14 132.79 314.49 133.55 313.85 134.32 313.62 135.45 313.86 136.73 316.86 153.02 330.46 174.51 350.25 194.2Z" fill="#78BE43"/><path d="M397.04 239.27C361.73 227.51 317 183.03 304.92 147.68 293.15 183.13 248.79 228 213.58 240.07 248.89 251.82 293.64 296.31 305.72 331.66 317.48 296.21 361.82 251.34 397.04 239.26Z" fill="#78BE43"/><path d="M316.13 386.38 317.31 389.5C317.39 389.7 317.45 389.9 317.5 390.11L341.02 481.82 355.81 457.98C357.18 455.77 359.86 454.76 362.35 455.5L392.37 464.53 368.75 372.43C352.32 380.28 334.37 385.03 316.12 386.38Z" fill="#78BE43"/><path d="M218.27 464.53 248.29 455.5C248.84 455.34 249.4 455.26 249.95 455.26 251.9 455.26 253.77 456.26 254.84 457.98L269.63 481.82 293.15 390.11C293.2 389.9 293.27 389.7 293.34 389.5L294.52 386.38C276.27 385.03 258.33 380.28 241.89 372.43L218.27 464.53Z" fill="#78BE43"/><path d="M300 0C134.32 0 0 134.32 0 300 0 465.68 134.32 600 300 600 465.68 600 600 465.68 600 300 600 134.32 465.68 0 300 0ZM404.45 477.12C402.95 478.56 400.8 479.08 398.81 478.48L363.25 467.78 343.67 499.33C342.61 501.04 340.75 502.05 338.79 502.05 338.5 502.05 338.21 502.03 337.92 501.98 335.64 501.63 333.79 499.96 333.22 497.72L306.43 393.26 305.31 390.29 304.19 393.26 277.41 497.72C276.84 499.95 274.99 501.63 272.71 501.98 272.42 502.02 272.13 502.05 271.84 502.05 269.87 502.05 268.01 501.04 266.96 499.33L247.38 467.78 211.82 478.48C209.83 479.08 207.68 478.56 206.18 477.12 204.68 475.68 204.08 473.55 204.59 471.54L231.45 366.78C231.5 366.57 231.57 366.37 231.64 366.17L233.13 362.24C233.72 360.69 234.94 359.47 236.49 358.89 238.04 358.31 239.77 358.43 241.23 359.21 260.3 369.46 281.01 374.85 302.79 375.25 303.68 375.27 304.54 375.49 305.31 375.89 306.08 375.49 306.94 375.26 307.83 375.25 329.61 374.85 350.32 369.46 369.39 359.21 370.85 358.43 372.58 358.31 374.13 358.89 375.68 359.47 376.91 360.69 377.49 362.24L378.98 366.17C379.06 366.37 379.12 366.57 379.17 366.78L406.03 471.54C406.55 473.55 405.94 475.68 404.44 477.12ZM390.9 324.78C370.21 345.7 343.86 357.93 318.63 358.33 318.54 358.33 318.45 358.33 318.36 358.33 313.74 358.33 309.49 356.45 306.67 353.15 306.36 352.79 306.09 352.41 305.82 352.03 305.55 352.43 305.26 352.82 304.95 353.2 302.13 356.56 297.84 358.48 293.16 358.48 293.12 358.48 293.08 358.48 293.03 358.48 267.76 358.3 241.3 346.28 220.44 325.49 199.59 304.73 187.41 278.3 187 252.98 186.92 248.25 188.81 243.9 192.19 241.02 192.55 240.71 192.93 240.44 193.31 240.17 192.91 239.9 192.52 239.61 192.14 239.3 188.75 236.46 186.82 232.12 186.85 227.39 187.03 202.04 199.01 175.49 219.72 154.56 240.42 133.64 266.76 121.41 291.99 121.01 296.7 120.93 301.07 122.82 303.94 126.19 304.25 126.55 304.52 126.93 304.79 127.31 305.06 126.91 305.34 126.52 305.66 126.15 308.51 122.76 312.88 120.84 317.57 120.87 342.84 121.05 369.3 133.07 390.17 153.85 411.02 174.61 423.21 201.04 423.6 226.36 423.68 231.08 421.79 235.44 418.42 238.31 418.06 238.62 417.69 238.9 417.3 239.17 417.7 239.44 418.09 239.72 418.47 240.04 421.86 242.88 423.79 247.22 423.75 251.95 423.57 277.3 411.59 303.85 390.88 324.78Z" fill="#78BE43"/><path d="M407.93 248.22C391.7 251.22 370.3 264.87 350.68 284.73 331.06 304.59 317.63 326.19 314.77 342.52 314.55 343.8 314.77 344.93 315.43 345.69 316.08 346.45 317.11 346.86 318.46 346.84 340.71 346.49 364.14 335.5 382.74 316.7 401.36 297.88 412.12 274.25 412.28 251.87 412.28 250.57 411.87 249.5 411.11 248.86 410.34 248.22 409.22 247.99 407.94 248.23Z" fill="#78BE43"/><path d="M260.38 285.17C240.59 265.48 219.07 252.01 202.83 249.14L202.83 249.14C202.51 249.08 202.2 249.06 201.9 249.06 201.01 249.06 200.24 249.31 199.67 249.8 198.91 250.45 198.5 251.52 198.52 252.82 198.88 275.17 209.83 298.69 228.57 317.36 247.32 336.03 270.85 346.84 293.13 347L293.17 347C294.45 347 295.51 346.58 296.14 345.83 296.78 345.06 297.01 343.94 296.77 342.65 293.77 326.36 280.16 304.88 260.37 285.18Z" fill="#78BE43"/><path d="M202.71 231.12C218.92 228.12 240.32 214.47 259.95 194.61 279.58 174.75 293.01 153.15 295.88 136.83 296.1 135.55 295.88 134.42 295.22 133.66 294.59 132.92 293.55 132.51 292.29 132.51 292.26 132.51 292.23 132.51 292.2 132.51 269.95 132.86 246.52 143.85 227.92 162.65 209.3 181.47 198.53 205.1 198.37 227.47 198.37 228.77 198.78 229.84 199.55 230.48 200.32 231.12 201.44 231.34 202.72 231.11Z" fill="#78BE43"/></g></g></svg>