<svg viewBox="0 0 372.5 349.93" xmlns="http://www.w3.org/2000/svg" xmlns:xlink="http://www.w3.org/1999/xlink" id="Layer_1" overflow="hidden"><style>
.MsftOfcThm_Accent3_Stroke_v2 {
 stroke:#44883E; 
}
</style>
<defs><clipPath id="clip-path" transform="translate(-45.71 -202.73)"><rect x="45.71" y="202.73" width="516.13" height="385.77" fill="none"/></clipPath></defs><g clip-path="url(#clip-path)"><path d="M337.1 512.44C336.4 512.44 335.99 513.59 335.85 514.33 335.409 515.585 335.195 516.91 335.22 518.24 335.64 521.83 336.62 526.38 339.05 529.59 339.988 531.091 340.493 532.821 340.51 534.59 340.51 537.82 342.34 543.05 344.1 544.82 345.145 546.035 346.085 547.336 346.91 548.71 348.18 550.77 349.32 551.6 351.22 551.84 356.22 552.46 355.49 551.66 356.6 551.17 357.71 550.68 357.15 550.11 358.76 550.51 360.65 550.99 360.83 550.85 360.43 549.31 360.18 548.31 360.31 547.56 360.7 547.56 361.09 547.56 360.93 545.12 361.7 545.12 362.356 545.104 362.961 545.471 363.25 546.06 363.618 546.697 364.268 547.12 365 547.2 366.26 547.39 366.4 546.97 366.05 544.28 365.74 542.03 365.99 541.49 366.43 540.73 367.035 539.717 367.228 538.511 366.97 537.36 366.752 536.429 366.815 535.455 367.15 534.56 367.57 533.87 368.4 534.94 368.53 534.56 369.08 532.99 369.32 534.37 369.22 527.37 369.09 518.78 368.96 518.08 367.22 516.95 366.06 516.18 364.7 517.55 363.84 517.55 363.062 517.517 362.308 517.828 361.78 518.4 361.5 518.85 357.94 519.09 355.44 519.96 350.44 521.69 349.55 521.53 343.26 517.64 342.2 516.893 341.047 516.288 339.83 515.84 339.7 515.93 339.1 515.5 338.48 514.84 337.64 514 338.57 513.41 337.85 512.77 337.642 512.543 337.348 512.412 337.04 512.41" class="MsftOfcThm_Accent3_Stroke_v2" stroke="#44883E" fill="none" transform="translate(-45.71 -202.73)"/><path d="M337.1 512.44C336.4 512.44 335.99 513.59 335.85 514.33 335.409 515.585 335.195 516.91 335.22 518.24 335.64 521.83 336.62 526.38 339.05 529.59 339.988 531.091 340.493 532.821 340.51 534.59 340.51 537.82 342.34 543.05 344.1 544.82 345.145 546.035 346.085 547.336 346.91 548.71 348.18 550.77 349.32 551.6 351.22 551.84 356.22 552.46 355.49 551.66 356.6 551.17 357.71 550.68 357.15 550.11 358.76 550.51 360.65 550.99 360.83 550.85 360.43 549.31 360.18 548.31 360.31 547.56 360.7 547.56 361.09 547.56 360.93 545.12 361.7 545.12 362.356 545.104 362.961 545.471 363.25 546.06 363.618 546.697 364.268 547.12 365 547.2 366.26 547.39 366.4 546.97 366.05 544.28 365.74 542.03 365.99 541.49 366.43 540.73 367.035 539.717 367.228 538.511 366.97 537.36 366.752 536.429 366.815 535.455 367.15 534.56 367.57 533.87 368.4 534.94 368.53 534.56 369.08 532.99 369.32 534.37 369.22 527.37 369.09 518.78 368.96 518.08 367.22 516.95 366.06 516.18 364.7 517.55 363.84 517.55 363.062 517.517 362.308 517.828 361.78 518.4 361.5 518.85 357.94 519.09 355.44 519.96 350.44 521.69 349.55 521.53 343.26 517.64 342.2 516.893 341.047 516.288 339.83 515.84 339.7 515.93 339.1 515.5 338.48 514.84 337.64 514 338.57 513.41 337.85 512.77 337.651 512.568 337.383 512.45 337.1 512.44Z" class="MsftOfcThm_Accent3_Stroke_v2" stroke="#44883E" stroke-width="1.23" stroke-linejoin="round" fill="none" transform="translate(-45.71 -202.73)"/><path d="M270.74 455.65C270.681 455.636 270.619 455.636 270.56 455.65L266.29 456.5C262.03 457.36 260.88 458.34 261.97 460.12 263.06 461.9 270.49 461.98 271.49 460.33 272.023 459.682 272.846 459.347 273.68 459.44 276.24 459.72 275.99 459.36 275.01 458.16 274.619 457.528 273.839 457.257 273.14 457.51 272.08 457.8 271.55 457.51 271.55 456.72 271.55 456.11 271.2 455.64 270.74 455.62" class="MsftOfcThm_Accent3_Stroke_v2" stroke="#44883E" fill="none" transform="translate(-45.71 -202.73)"/><path d="M270.74 455.65C270.681 455.636 270.619 455.636 270.56 455.65L266.29 456.5C262.03 457.36 260.88 458.34 261.97 460.12 263.06 461.9 270.49 461.98 271.49 460.33 272.023 459.682 272.846 459.347 273.68 459.44 276.24 459.72 275.99 459.36 275.01 458.16 274.619 457.528 273.839 457.257 273.14 457.51 272.08 457.8 271.55 457.51 271.55 456.72 271.55 456.14 271.2 455.67 270.74 455.65Z" class="MsftOfcThm_Accent3_Stroke_v2" stroke="#44883E" fill="none" transform="translate(-45.71 -202.73)"/><path d="M205.68 209.22C204.204 209.46 203.157 210.789 203.27 212.28 203.27 213.13 202.91 213.84 202.46 213.84 202.044 213.811 201.682 214.124 201.65 214.54 201.65 214.93 203.35 215.29 205.41 215.33 207.47 215.37 209.19 215.03 209.41 215.27 210.25 216.12 212.27 215.61 213.98 213.84 216.34 211.38 216.5 211.28 215.12 210.2 214.01 209.33 212.97 209.2 210.82 209.83 208.67 210.46 207.69 210.38 206.82 209.68 206.486 209.391 206.061 209.228 205.62 209.22" class="MsftOfcThm_Accent3_Stroke_v2" stroke="#44883E" fill="none" transform="translate(-45.71 -202.73)"/><path d="M205.68 209.22C204.204 209.46 203.157 210.789 203.27 212.28 203.27 213.13 202.91 213.84 202.46 213.84 202.044 213.811 201.682 214.124 201.65 214.54 201.65 214.93 203.35 215.29 205.41 215.33 207.47 215.37 209.19 215.03 209.41 215.27 210.25 216.12 212.27 215.61 213.98 213.84 216.34 211.38 216.5 211.28 215.12 210.2 214.01 209.33 212.97 209.2 210.82 209.83 208.67 210.46 207.69 210.38 206.82 209.68 206.502 209.404 206.101 209.242 205.68 209.22Z" class="MsftOfcThm_Accent3_Stroke_v2" stroke="#44883E" fill="none" transform="translate(-45.71 -202.73)"/></g><path d="M331.57 247.91 331.33 247.97 329.81 249.16 328.75 249.88 328.69 249.98 328.6 250.1 328.54 250.19 328.54 250.25 328.54 250.34 328.54 250.4 328.54 250.46 328.57 250.52 328.57 250.62 328.54 250.71 328.42 251.04 328.39 251.13 328.36 251.41 328.24 251.95 328.24 252.1 328.26 252.59 328.36 252.96 328.36 253.08 328.33 253.23 328.26 253.59 328.26 253.75 328.26 253.84 328.42 253.96 328.45 254.02 328.45 254.08 328.42 254.2 328.45 254.29 328.45 254.38 328.48 254.44 328.51 254.51 328.81 254.81 328.87 254.84 328.9 254.87 328.96 254.87 329.02 254.87 329.06 254.84 329.08 254.72 329.15 254.69 329.18 254.63 329.24 254.63 329.3 254.63 329.33 254.69 329.36 254.78 329.39 255.02 329.45 255.66 329.51 255.9 329.66 256.24 329.72 256.33 329.75 256.36 329.81 256.39 329.9 256.45 330.45 256.63 330.66 256.79 330.73 256.82 330.79 256.82 330.82 256.82 330.88 256.79 330.91 256.73 330.94 256.66 331 256.48 331.06 256.39 331.06 256.33 331.12 256.3 331.15 256.27 331.24 256.21 331.27 256.15 331.3 256.12 331.33 256.06 331.36 255.9 331.36 255.75 331.36 255.63 331.27 255.17 331.27 255.05 331.27 254.99 331.36 254.66 331.36 254.47 331.3 254.14 331.18 253.5 331.18 253.29 331.21 253.17 331.3 253.08 331.55 252.96 331.61 252.83 331.61 252.77 331.64 252.68 331.76 252.35 331.79 252.23 331.79 252.13 331.76 252.01 331.76 251.95 331.7 251.89 331.67 251.74 331.67 251.71 331.7 251.65 331.76 251.53 331.76 251.47 331.73 251.41 331.7 251.31 331.7 251.28 331.73 251.22 331.79 251.19 331.82 251.16 331.88 251.07 331.94 250.98 332.09 250.71 332.12 250.65 332.21 250.58 332.24 250.55 332.3 250.55 332.36 250.55 332.52 250.68 332.55 250.68 332.64 250.65 332.67 250.62 332.7 250.49 332.85 250.34 332.88 250.31 332.97 250.28 333.64 250.4 333.73 250.4 333.79 250.4 333.94 250.28 334.04 250.19 334.16 250.07 334.16 250.01 334.1 249.98 333.64 249.73 333.43 249.64 333.37 249.64 333.25 249.61 332.79 249.4 332.7 249.34 332.67 249.28 332.67 249.19 332.67 249.13 332.67 249.06 332.64 248.97 332.61 248.94 332.52 248.94 332.43 248.91 332.3 248.88 332.24 248.82 332.18 248.79 332.18 248.73 332.18 248.67 332.18 248.64 332.18 248.52 332.18 248.43 332.15 248.37 332.12 248.3 332.06 248.27 331.57 247.91Z" class="MsftOfcThm_Accent3_Stroke_v2" stroke="#44883E" fill="none"/><path d="M331.57 247.91 331.33 247.97 329.81 249.16 328.75 249.88 328.69 249.98 328.6 250.1 328.54 250.19 328.54 250.25 328.54 250.34 328.54 250.4 328.54 250.46 328.57 250.52 328.57 250.62 328.54 250.71 328.42 251.04 328.39 251.13 328.36 251.41 328.24 251.95 328.24 252.1 328.26 252.59 328.36 252.96 328.36 253.08 328.33 253.23 328.26 253.59 328.26 253.75 328.26 253.84 328.42 253.96 328.45 254.02 328.45 254.08 328.42 254.2 328.45 254.29 328.45 254.38 328.48 254.44 328.51 254.51 328.81 254.81 328.87 254.84 328.9 254.87 328.96 254.87 329.02 254.87 329.06 254.84 329.08 254.72 329.15 254.69 329.18 254.63 329.24 254.63 329.3 254.63 329.33 254.69 329.36 254.78 329.39 255.02 329.45 255.66 329.51 255.9 329.66 256.24 329.72 256.33 329.75 256.36 329.81 256.39 329.9 256.45 330.45 256.63 330.66 256.79 330.73 256.82 330.79 256.82 330.82 256.82 330.88 256.79 330.91 256.73 330.94 256.66 331 256.48 331.06 256.39 331.06 256.33 331.12 256.3 331.15 256.27 331.24 256.21 331.27 256.15 331.3 256.12 331.33 256.06 331.36 255.9 331.36 255.75 331.36 255.63 331.27 255.17 331.27 255.05 331.27 254.99 331.36 254.66 331.36 254.47 331.3 254.14 331.18 253.5 331.18 253.29 331.21 253.17 331.3 253.08 331.55 252.96 331.61 252.83 331.61 252.77 331.64 252.68 331.76 252.35 331.79 252.23 331.79 252.13 331.76 252.01 331.76 251.95 331.7 251.89 331.67 251.74 331.67 251.71 331.7 251.65 331.76 251.53 331.76 251.47 331.73 251.41 331.7 251.31 331.7 251.28 331.73 251.22 331.79 251.19 331.82 251.16 331.88 251.07 331.94 250.98 332.09 250.71 332.12 250.65 332.21 250.58 332.24 250.55 332.3 250.55 332.36 250.55 332.52 250.68 332.55 250.68 332.64 250.65 332.67 250.62 332.7 250.49 332.85 250.34 332.88 250.31 332.97 250.28 333.64 250.4 333.73 250.4 333.79 250.4 333.94 250.28 334.04 250.19 334.16 250.07 334.16 250.01 334.1 249.98 333.64 249.73 333.43 249.64 333.37 249.64 333.25 249.61 332.79 249.4 332.7 249.34 332.67 249.28 332.67 249.19 332.67 249.13 332.67 249.06 332.64 248.97 332.61 248.94 332.52 248.94 332.43 248.91 332.3 248.88 332.24 248.82 332.18 248.79 332.18 248.73 332.18 248.67 332.18 248.64 332.18 248.52 332.18 248.43 332.15 248.37 332.12 248.3 332.06 248.27 331.57 247.91Z" class="MsftOfcThm_Accent3_Stroke_v2" stroke="#44883E" stroke-width="1.23" stroke-linejoin="round" fill="none"/><g clip-path="url(#clip-path)"><path d="M302.75 384.07 302.75 438.19 302.96 438.55 303.17 438.7 304 438.7 304.23 438.76 304.35 438.85 304.44 438.94 304.5 439 304.68 439 304.74 439 304.86 438.88 304.92 438.88 304.98 438.88 305.1 438.94 305.1 438.94 305.19 439 305.25 439.09 305.37 439.21 305.49 439.21 305.58 439.27 305.7 439.51 305.79 439.6 305.9 439.6 306.11 439.51 306.32 439.51 306.5 439.6 306.56 439.6 306.83 439.81 306.95 439.87 307.43 439.87 307.52 439.93 307.52 440.17 307.58 440.29 307.64 440.35 307.72 440.35 307.93 440.35 308.05 440.2 308.26 439.87 308.5 439.63 308.83 439.39 309.19 439.18 309.58 439.12 309.78 439.12 310.2 439.33 310.44 439.39 310.86 439.39 311.01 439.33 311.22 439.24 311.31 439.3 311.43 439.3 311.51 439.3 311.63 439.3 312.11 439.18 312.35 439.18 312.59 439.42 312.74 439.81 312.86 439.81 313.01 439.72 313.07 439.72 313.28 439.72 313.4 439.78 313.48 439.87 313.63 440.05 313.72 440.11 313.93 440.11 314.05 440.11 314.05 440.11 314.14 440.35 314.14 440.62 314.14 440.86 314.14 440.95 314.2 441.01 314.26 441.01 314.38 441.22 314.56 441.43 314.77 441.61 314.92 441.7 315.13 441.7 315.27 441.7 315.39 441.7 315.48 441.88 315.42 442.09 315.24 442.42 315.18 442.66 315.18 442.88 315.32 443.88 315.41 444.03 315.98 444.54 316.07 444.66 316.07 444.75 316.07 444.81 316.07 444.9 316.07 445.02 316.07 445.11 316.28 445.35 316.55 445.95 316.55 446.31 316.55 446.37 316.64 446.46 316.76 446.52 316.82 446.58 317.03 446.58 317.17 446.58 317.29 446.58 317.47 446.73 317.62 446.67 317.62 446.55 317.53 446.37 317.53 446.16 317.53 446.07 317.62 446.07 317.8 446.07 317.95 446.07 318.07 446.07 318.13 446.01 318.19 445.83 318.19 445.83 318.19 445.74 318.19 445.47 318.25 445.41 318.25 445.35 318.25 445.29 318.34 444.81 318.4 444.6 318.58 444.51 318.7 444.51 318.91 444.42 318.99 444.42 319.08 444.42 319.14 444.51 319.26 444.63 319.53 444.75 319.59 444.84 319.65 444.93 319.65 445.17 319.65 445.29 319.74 445.44 319.74 445.44 320.01 445.32 320.07 445.26 320.13 445.2 320.22 445.2 320.52 445.47 320.67 445.56 320.73 445.47 320.78 445.32 320.96 445.38 321.29 445.59 322.16 445.68 322.28 445.68 322.87 446.01 322.96 446.13 323.14 446.19 323.29 446.25 323.38 446.43 323.44 446.67 323.56 446.67 323.71 446.58 323.86 446.58 324.1 446.79 324.16 446.85 324.16 446.97 324.1 447.15 324.1 447.27 324.16 447.42 324.16 447.51 324.16 447.6 324.1 447.69 324.04 447.75 324.04 447.75 324.04 447.87 324.04 447.99 324.04 448.05 324.04 448.14 324.04 448.26 323.95 448.47 323.95 448.74 324.04 449.05 324.1 449.74 324.25 450.19 324.43 450.61 324.63 451 324.72 451.09 324.9 451.21 325.11 451.33 325.92 451.51 326.07 451.6 326.22 451.78 326.31 451.99 326.31 452.41 326.31 452.53 326.25 452.59 326.25 452.68 326.25 452.83 326.31 452.95 326.4 453.04 326.9 453.37 327.65 453.49 328.04 453.7 328.13 453.76 328.13 453.85 328.19 453.85 328.39 453.91 328.48 453.97 328.57 454.03 328.78 454.24 329.14 454.48 329.71 454.72 329.89 454.84 330.04 455.21 330.25 455.3 330.66 455.36 330.99 455.57 331.44 456.29 331.71 456.62 331.8 456.62 331.92 456.62 332.01 456.68 332.01 456.74 332.01 456.8 332.18 456.98 332.33 457.07 332.45 457.25 332.54 457.31 332.66 457.31 332.87 457.31 332.99 457.31 333.26 457.58 333.47 458 333.89 459.11 334 459.32 334.15 459.5 334.51 459.62 335.51 460.85 335.69 460.94 336.07 460.94 336.25 461 336.37 461.19 336.46 461.28 336.46 461.34 336.55 461.34 336.64 461.34 336.64 461.4 336.64 461.52 336.76 461.61 337 461.61 337.39 461.55 337.57 461.43 337.95 461 338.13 460.94 338.31 460.94 338.73 461.16 338.91 461.16 339 460.97 338.91 460.73 338.76 460.52 338.61 460.34 338.52 460.13 338.58 459.92 338.79 459.53 338.88 458.87 338.88 458.78 339.03 458.63 339.18 458.57 340.18 458.36 341.05 458.36 341.35 458.45 341.73 458.57 342.12 458.66 342.51 458.66 343.2 458.27 343.58 458.15 343.97 458.15 344.3 458.33 345.88 459.68 346.27 459.86 346.66 459.86 347.28 459.68 347.49 459.68 347.67 459.68 347.85 459.8 347.91 459.89 347.91 460.01 347.97 460.13 348.06 460.22 348.12 460.22 348.48 460.22 348.78 460.22 348.9 460.31 349.07 460.4 349.67 460.46 349.88 460.52 350.03 460.61 350.18 460.67 350.24 460.49 350.3 460.49 350.45 460.49 350.66 460.49 350.95 460.61 351.58 460.7 351.73 460.64 352.15 459.92 352.27 459.86 352.36 459.86 352.45 459.92 352.54 459.92 352.66 459.92 352.75 459.83 352.83 459.83 352.92 459.83 353.1 459.98 353.19 459.98 353.94 459.98 354.06 460.07 354.36 460.43 354.51 460.55 354.95 460.55 355.13 460.55 355.28 460.79 355.4 460.79 355.64 460.79 355.73 460.79 355.82 460.88 355.97 461.07 356.27 460.97 356.51 461.1 356.74 461.28 356.98 461.28 356.98 461.22 357.04 461.13 357.1 461.04 357.25 460.97 357.4 460.97 357.49 460.97 357.76 461.13 357.76 461.19 357.76 461.49 357.76 461.88 357.85 462.15 358.24 462.57 358.36 462.66 359.16 462.42 359.1 462.3 358.98 462.3 358.71 462.3 358.59 462.3 358.47 462.21 358.36 462.12 358.3 462.03 358.24 461.88 358.24 461.76 358.24 461.46 358.24 461.4 358.24 461.34 358.24 461.25 358.24 461.16 358.24 461.1 358.33 460.94 358.33 460.88 358.33 460.79 358.56 460.49 358.65 460.43 358.74 460.43 358.83 460.52 358.95 460.64 359.13 460.7 359.4 460.7 359.88 460.58 359.97 460.58 360.06 460.58 360.24 460.58 360.41 460.7 360.56 460.88 360.62 460.7 360.74 460.1 360.83 459.95 360.92 459.77 361.07 459.62 361.19 459.53 361.28 459.53 361.52 459.53 362 459.53 362.15 459.41 362.24 459.41 362.39 459.41 362.57 459.53 362.68 459.68 362.74 459.89 362.89 459.95 364 460 364 460 364.18 459.85 364.24 459.85 364.33 459.85 364.51 459.91 364.59 459.91 365.79 460.51 366.03 460.51 366.15 460.57 366.15 460.66 366.21 460.78 366.3 460.9 366.39 460.99 366.47 460.99 366.65 460.99 366.89 461.11 366.95 461.23 366.89 461.44 366.89 461.75 366.95 461.93 367.28 462.17 367.37 462.41 367.28 462.86 367.28 463.13 367.37 463.25 367.37 463.4 367.55 464.06 367.64 464.24 367.64 464.33 367.64 464.48 367.64 464.54 367.52 464.75 367.52 464.87 367.58 465.11 367.76 465.29 368.09 465.53 368.18 465.68 368.18 465.77 368.24 466.01 368.24 466.07 368.24 466.13 368.24 466.19 368.24 466.67 368.24 466.76 368.24 466.85 368.3 466.94 368.36 467.03 368.45 467.03 368.57 467.03 368.69 467.09 368.84 467.45 368.84 467.57 368.84 467.85 368.78 468.09 368.66 468.3 368.01 469.38 368.01 469.38 368.13 469.44 368.36 469.5 368.87 469.5 369.11 469.62 371.11 470.62 373.11 471.62 375.11 472.62 377.11 473.62 379.11 474.62 381.11 475.62 383.11 476.62 384.11 477.16C384.473 475.942 384.616 474.668 384.53 473.4 384.27 466.03 388.13 452.86 391.03 451.23 391.775 450.733 392.259 449.93 392.35 449.04 392.35 448.22 392.51 446.42 392.59 445.04 392.822 443.21 393.556 441.479 394.71 440.04 395.725 438.912 396.417 437.529 396.71 436.04 396.71 434.04 401.43 425.29 402.5 425.29 404.23 425.29 407.97 420.29 407.97 417.96 407.97 416.67 408.31 415.58 408.71 415.58 409.82 415.58 412.84 405.72 412.32 403.77 412.07 402.84 412.63 399.77 413.55 396.98 414.383 394.517 414.933 391.967 415.19 389.38 415.272 387.702 415.686 386.056 416.41 384.54 417.67 382.12 417.91 376.99 417.04 375.32L416.29 375.92 416.02 376.04 415.75 375.95 415.63 375.95 414.89 376.16 414.77 376.16 414.53 376.16 414.41 376.34 414.41 376.46 414.35 376.55 414.35 376.61 414.35 376.61 414.26 376.61 414.05 376.94 413.93 377.06 413.84 377.06 413.7 377.06 413.61 377 413.55 377 412.86 377 412.35 377 412.26 377 412 377 411.8 377 411.62 377 411.5 377 411.44 377 411.38 377 411.29 377.12 411.23 377.18 410.99 377.27 410.84 377.27 410.69 377.33 410.63 377.33 410.54 377.33 409.68 376.97 409.59 376.91 409.38 376.67 409.26 376.67 409.26 376.67 409.26 376.73 409.26 376.73 409.26 377 409.2 377.06 409.11 377.12 409.02 377.12 408.93 377.12 408.81 377.06 408.81 377.06 408.81 377.06 408.81 377 408.81 377 408.81 376.82 408.81 376.73 408.75 376.64 408.6 376.49 408.48 376.49 408.42 376.49 408.36 376.49 408.3 376.55 408.01 376.82 407.89 376.91 407.83 376.91 407.71 377.3 407.71 377.3 407.71 377.3 407.71 377.36 407.56 377.45 407.26 377.57 406.87 377.57 406.75 377.57 406.66 377.57 406.46 377.78 406.28 377.96 406.19 378.05 406.13 378.05 406.07 378.05 406.01 378.05 405.71 378.05 405.59 378.05 405.5 378.05 404.5 378.59 404.41 378.71 404.35 378.8 404.14 378.95 404.05 379.01 403.96 379.01 403.87 379.01 403.78 379.01 403.78 379.01 403.78 379.07 403.78 379.07 403.78 379.13 403.78 379.25 404.02 379.52 404.08 379.64 404.08 379.82 404.08 379.91 404.14 380 404.14 380.06 404.35 380.27 404.62 380.58 404.62 380.67 404.62 380.76 404.62 381 404.62 381 404.53 381.15 404.53 381.15 404.53 381.21 404.53 381.33 404.53 381.57 404.53 381.99 404.47 382.08 404.38 382.35 404.38 382.68 404.38 382.74 404.38 382.8 404.38 382.86 404.38 382.92 404.32 382.92 404.32 382.92 404.11 382.92 404.05 382.92 403.96 382.92 403.66 383.07 403.54 383.07 403.33 383.01 403.15 382.95 403.03 382.95 402.98 382.95 402.92 382.95 402.92 383.01 402.86 383.16 402.8 383.43 402.74 383.49 402.74 383.49 402.68 383.49 402.68 383.49 402.59 383.43 402.59 383.43 402.53 383.43 402.41 383.43 402.35 383.43 402.29 383.43 402.29 383.43 402.29 383.43 401.96 382.8 401 382.8 400.88 382.89 400.55 383.13 400.43 383.19 400.35 383.19 400.29 383.19 400.11 383.19 400.05 383.19 399.9 383.31 399.84 383.31 399.78 383.31 399.69 383.31 399.63 383.31 399.57 383.31 399.57 383.31 399.51 383.46 399.3 383.85 399.24 384.06 399.24 384.42 399.18 384.48 399 384.6 398.91 384.66 398.76 384.9 398.7 385.02 398.61 385.08 398.44 385.2 398.38 385.26 398.38 385.32 398.38 385.38 398.23 385.44 398.02 385.53 397.96 385.53 397.72 385.47 397.66 385.35 397.66 385.02 397.6 384.93 397.42 384.84 397.42 384.78 397.36 384.39 397.36 384 397.3 383.94 397.3 383.85 397.36 383.73 397.3 383.58 397.18 382.92 396.56 382.5 396.2 382.23 396.02 382.11 395.81 382.11 395.45 382.11 395.24 382.05 395.09 381.96 395.03 381.78 395.03 381.18 394.94 381 394.77 380.91 394.53 380.91 394.35 380.91 394.2 380.79 394.08 380.64 393.93 380.52 393.54 380.43 393.36 380.33 393.03 380.09 392.65 379.97 392.26 379.97 391.45 380.18 391.06 380.18 389.87 380.18 389.48 380.09 389.18 379.88 388.68 379.31 388.32 379.01 388.11 378.92 387.9 379.01 387.72 379.1 387.54 379.1 386.95 379.1 386.83 379.1 386.32 379.31 385.9 379.4 385.54 379.58 385.39 379.58 385.1 379.58 384.92 379.58 384.53 379.67 384.17 379.61 383.17 379.61 383.02 379.61 382.9 379.61 382.66 379.76 382.54 379.64 382.39 379.58 382.06 379.58 381.88 379.52 381.88 379.4 381.82 379.22 381.7 379.1 381.53 379.16 380.69 379.28 380.54 379.4 380.21 380.09 380.06 380.31 379.88 380.4 379.71 380.4 378.71 380.88 378.62 380.88 378.62 380.97 378.53 381.06 378.41 381.15 378.2 381.24 378.14 381.33 378.14 381.45 378.05 381.54 377.9 381.69 377.7 381.81 377.49 381.87 377.28 381.87 377.1 381.96 377.01 382.17 376.92 382.68 376.83 382.89 376.68 383.07 376.47 383.22 376.23 383.31 375.99 383.55 302.75 383.55Z" class="MsftOfcThm_Accent3_Stroke_v2" stroke="#44883E" fill="none" transform="translate(-45.71 -202.73)"/><path d="M302.75 384.07 302.75 438.19 302.96 438.55 303.17 438.7 304 438.7 304.23 438.76 304.35 438.85 304.44 438.94 304.5 439 304.68 439 304.74 439 304.86 438.88 304.92 438.88 304.98 438.88 305.1 438.94 305.1 438.94 305.19 439 305.25 439.09 305.37 439.21 305.49 439.21 305.58 439.27 305.7 439.51 305.79 439.6 305.9 439.6 306.11 439.51 306.32 439.51 306.5 439.6 306.56 439.6 306.83 439.81 306.95 439.87 307.43 439.87 307.52 439.93 307.52 440.17 307.58 440.29 307.64 440.35 307.72 440.35 307.93 440.35 308.05 440.2 308.26 439.87 308.5 439.63 308.83 439.39 309.19 439.18 309.58 439.12 309.78 439.12 310.2 439.33 310.44 439.39 310.86 439.39 311.01 439.33 311.22 439.24 311.31 439.3 311.43 439.3 311.51 439.3 311.63 439.3 312.11 439.18 312.35 439.18 312.59 439.42 312.74 439.81 312.86 439.81 313.01 439.72 313.07 439.72 313.28 439.72 313.4 439.78 313.48 439.87 313.63 440.05 313.72 440.11 313.93 440.11 314.05 440.11 314.05 440.11 314.14 440.35 314.14 440.62 314.14 440.86 314.14 440.95 314.2 441.01 314.26 441.01 314.38 441.22 314.56 441.43 314.77 441.61 314.92 441.7 315.13 441.7 315.27 441.7 315.39 441.7 315.48 441.88 315.42 442.09 315.24 442.42 315.18 442.66 315.18 442.88 315.32 443.88 315.41 444.03 315.98 444.54 316.07 444.66 316.07 444.75 316.07 444.81 316.07 444.9 316.07 445.02 316.07 445.11 316.28 445.35 316.55 445.95 316.55 446.31 316.55 446.37 316.64 446.46 316.76 446.52 316.82 446.58 317.03 446.58 317.17 446.58 317.29 446.58 317.47 446.73 317.62 446.67 317.62 446.55 317.53 446.37 317.53 446.16 317.53 446.07 317.62 446.07 317.8 446.07 317.95 446.07 318.07 446.07 318.13 446.01 318.19 445.83 318.19 445.83 318.19 445.74 318.19 445.47 318.25 445.41 318.25 445.35 318.25 445.29 318.34 444.81 318.4 444.6 318.58 444.51 318.7 444.51 318.91 444.42 318.99 444.42 319.08 444.42 319.14 444.51 319.26 444.63 319.53 444.75 319.59 444.84 319.65 444.93 319.65 445.17 319.65 445.29 319.74 445.44 319.74 445.44 320.01 445.32 320.07 445.26 320.13 445.2 320.22 445.2 320.52 445.47 320.67 445.56 320.73 445.47 320.78 445.32 320.96 445.38 321.29 445.59 322.16 445.68 322.28 445.68 322.87 446.01 322.96 446.13 323.14 446.19 323.29 446.25 323.38 446.43 323.44 446.67 323.56 446.67 323.71 446.58 323.86 446.58 324.1 446.79 324.16 446.85 324.16 446.97 324.1 447.15 324.1 447.27 324.16 447.42 324.16 447.51 324.16 447.6 324.1 447.69 324.04 447.75 324.04 447.75 324.04 447.87 324.04 447.99 324.04 448.05 324.04 448.14 324.04 448.26 323.95 448.47 323.95 448.74 324.04 449.05 324.1 449.74 324.25 450.19 324.43 450.61 324.63 451 324.72 451.09 324.9 451.21 325.11 451.33 325.92 451.51 326.07 451.6 326.22 451.78 326.31 451.99 326.31 452.41 326.31 452.53 326.25 452.59 326.25 452.68 326.25 452.83 326.31 452.95 326.4 453.04 326.9 453.37 327.65 453.49 328.04 453.7 328.13 453.76 328.13 453.85 328.19 453.85 328.39 453.91 328.48 453.97 328.57 454.03 328.78 454.24 329.14 454.48 329.71 454.72 329.89 454.84 330.04 455.21 330.25 455.3 330.66 455.36 330.99 455.57 331.44 456.29 331.71 456.62 331.8 456.62 331.92 456.62 332.01 456.68 332.01 456.74 332.01 456.8 332.18 456.98 332.33 457.07 332.45 457.25 332.54 457.31 332.66 457.31 332.87 457.31 332.99 457.31 333.26 457.58 333.47 458 333.89 459.11 334 459.32 334.15 459.5 334.51 459.62 335.51 460.85 335.69 460.94 336.07 460.94 336.25 461 336.37 461.19 336.46 461.28 336.46 461.34 336.55 461.34 336.64 461.34 336.64 461.4 336.64 461.52 336.76 461.61 337 461.61 337.39 461.55 337.57 461.43 337.95 461 338.13 460.94 338.31 460.94 338.73 461.16 338.91 461.16 339 460.97 338.91 460.73 338.76 460.52 338.61 460.34 338.52 460.13 338.58 459.92 338.79 459.53 338.88 458.87 338.88 458.78 339.03 458.63 339.18 458.57 340.18 458.36 341.05 458.36 341.35 458.45 341.73 458.57 342.12 458.66 342.51 458.66 343.2 458.27 343.58 458.15 343.97 458.15 344.3 458.33 345.88 459.68 346.27 459.86 346.66 459.86 347.28 459.68 347.49 459.68 347.67 459.68 347.85 459.8 347.91 459.89 347.91 460.01 347.97 460.13 348.06 460.22 348.12 460.22 348.48 460.22 348.78 460.22 348.9 460.31 349.07 460.4 349.67 460.46 349.88 460.52 350.03 460.61 350.18 460.67 350.24 460.49 350.3 460.49 350.45 460.49 350.66 460.49 350.95 460.61 351.58 460.7 351.73 460.64 352.15 459.92 352.27 459.86 352.36 459.86 352.45 459.92 352.54 459.92 352.66 459.92 352.75 459.83 352.83 459.83 352.92 459.83 353.1 459.98 353.19 459.98 353.94 459.98 354.06 460.07 354.36 460.43 354.51 460.55 354.95 460.55 355.13 460.55 355.28 460.79 355.4 460.79 355.64 460.79 355.73 460.79 355.82 460.88 355.97 461.07 356.27 460.97 356.51 461.1 356.74 461.28 356.98 461.28 356.98 461.22 357.04 461.13 357.1 461.04 357.25 460.97 357.4 460.97 357.49 460.97 357.76 461.13 357.76 461.19 357.76 461.49 357.76 461.88 357.85 462.15 358.24 462.57 358.36 462.66 359.16 462.42 359.1 462.3 358.98 462.3 358.71 462.3 358.59 462.3 358.47 462.21 358.36 462.12 358.3 462.03 358.24 461.88 358.24 461.76 358.24 461.46 358.24 461.4 358.24 461.34 358.24 461.25 358.24 461.16 358.24 461.1 358.33 460.94 358.33 460.88 358.33 460.79 358.56 460.49 358.65 460.43 358.74 460.43 358.83 460.52 358.95 460.64 359.13 460.7 359.4 460.7 359.88 460.58 359.97 460.58 360.06 460.58 360.24 460.58 360.41 460.7 360.56 460.88 360.62 460.7 360.74 460.1 360.83 459.95 360.92 459.77 361.07 459.62 361.19 459.53 361.28 459.53 361.52 459.53 362 459.53 362.15 459.41 362.24 459.41 362.39 459.41 362.57 459.53 362.68 459.68 362.74 459.89 362.89 459.95 364 460 364 460 364.18 459.85 364.24 459.85 364.33 459.85 364.51 459.91 364.59 459.91 365.79 460.51 366.03 460.51 366.15 460.57 366.15 460.66 366.21 460.78 366.3 460.9 366.39 460.99 366.47 460.99 366.65 460.99 366.89 461.11 366.95 461.23 366.89 461.44 366.89 461.75 366.95 461.93 367.28 462.17 367.37 462.41 367.28 462.86 367.28 463.13 367.37 463.25 367.37 463.4 367.55 464.06 367.64 464.24 367.64 464.33 367.64 464.48 367.64 464.54 367.52 464.75 367.52 464.87 367.58 465.11 367.76 465.29 368.09 465.53 368.18 465.68 368.18 465.77 368.24 466.01 368.24 466.07 368.24 466.13 368.24 466.19 368.24 466.67 368.24 466.76 368.24 466.85 368.3 466.94 368.36 467.03 368.45 467.03 368.57 467.03 368.69 467.09 368.84 467.45 368.84 467.57 368.84 467.85 368.78 468.09 368.66 468.3 368.01 469.38 368.01 469.38 368.13 469.44 368.36 469.5 368.87 469.5 369.11 469.62 371.11 470.62 373.11 471.62 375.11 472.62 377.11 473.62 379.11 474.62 381.11 475.62 383.11 476.62 384.11 477.16C384.473 475.942 384.616 474.668 384.53 473.4 384.27 466.03 388.13 452.86 391.03 451.23 391.775 450.733 392.259 449.93 392.35 449.04 392.35 448.22 392.51 446.42 392.59 445.04 392.822 443.21 393.556 441.479 394.71 440.04 395.725 438.912 396.417 437.529 396.71 436.04 396.71 434.04 401.43 425.29 402.5 425.29 404.23 425.29 407.97 420.29 407.97 417.96 407.97 416.67 408.31 415.58 408.71 415.58 409.82 415.58 412.84 405.72 412.32 403.77 412.07 402.84 412.63 399.77 413.55 396.98 414.383 394.517 414.933 391.967 415.19 389.38 415.272 387.702 415.686 386.056 416.41 384.54 417.67 382.12 417.91 376.99 417.04 375.32L416.29 375.92 416.02 376.04 415.75 375.95 415.63 375.95 414.89 376.16 414.77 376.16 414.53 376.16 414.41 376.34 414.41 376.46 414.35 376.55 414.35 376.61 414.35 376.61 414.26 376.61 414.05 376.94 413.93 377.06 413.84 377.06 413.7 377.06 413.61 377 413.55 377 412.86 377 412.35 377 412.26 377 412 377 411.8 377 411.62 377 411.5 377 411.44 377 411.38 377 411.29 377.12 411.23 377.18 410.99 377.27 410.84 377.27 410.69 377.33 410.63 377.33 410.54 377.33 409.68 376.97 409.59 376.91 409.38 376.67 409.26 376.67 409.26 376.67 409.26 376.73 409.26 376.73 409.26 377 409.2 377.06 409.11 377.12 409.02 377.12 408.93 377.12 408.81 377.06 408.81 377.06 408.81 377.06 408.81 377 408.81 377 408.81 376.82 408.81 376.73 408.75 376.64 408.6 376.49 408.48 376.49 408.42 376.49 408.36 376.49 408.3 376.55 408.01 376.82 407.89 376.91 407.83 376.91 407.71 377.3 407.71 377.3 407.71 377.3 407.71 377.36 407.56 377.45 407.26 377.57 406.87 377.57 406.75 377.57 406.66 377.57 406.46 377.78 406.28 377.96 406.19 378.05 406.13 378.05 406.07 378.05 406.01 378.05 405.71 378.05 405.59 378.05 405.5 378.05 404.5 378.59 404.41 378.71 404.35 378.8 404.14 378.95 404.05 379.01 403.96 379.01 403.87 379.01 403.78 379.01 403.78 379.01 403.78 379.07 403.78 379.07 403.78 379.13 403.78 379.25 404.02 379.52 404.08 379.64 404.08 379.82 404.08 379.91 404.14 380 404.14 380.06 404.35 380.27 404.62 380.58 404.62 380.67 404.62 380.76 404.62 381 404.62 381 404.53 381.15 404.53 381.15 404.53 381.21 404.53 381.33 404.53 381.57 404.53 381.99 404.47 382.08 404.38 382.35 404.38 382.68 404.38 382.74 404.38 382.8 404.38 382.86 404.38 382.92 404.32 382.92 404.32 382.92 404.11 382.92 404.05 382.92 403.96 382.92 403.66 383.07 403.54 383.07 403.33 383.01 403.15 382.95 403.03 382.95 402.98 382.95 402.92 382.95 402.92 383.01 402.86 383.16 402.8 383.43 402.74 383.49 402.74 383.49 402.68 383.49 402.68 383.49 402.59 383.43 402.59 383.43 402.53 383.43 402.41 383.43 402.35 383.43 402.29 383.43 402.29 383.43 402.29 383.43 401.96 382.8 401 382.8 400.88 382.89 400.55 383.13 400.43 383.19 400.35 383.19 400.29 383.19 400.11 383.19 400.05 383.19 399.9 383.31 399.84 383.31 399.78 383.31 399.69 383.31 399.63 383.31 399.57 383.31 399.57 383.31 399.51 383.46 399.3 383.85 399.24 384.06 399.24 384.42 399.18 384.48 399 384.6 398.91 384.66 398.76 384.9 398.7 385.02 398.61 385.08 398.44 385.2 398.38 385.26 398.38 385.32 398.38 385.38 398.23 385.44 398.02 385.53 397.96 385.53 397.72 385.47 397.66 385.35 397.66 385.02 397.6 384.93 397.42 384.84 397.42 384.78 397.36 384.39 397.36 384 397.3 383.94 397.3 383.85 397.36 383.73 397.3 383.58 397.18 382.92 396.56 382.5 396.2 382.23 396.02 382.11 395.81 382.11 395.45 382.11 395.24 382.05 395.09 381.96 395.03 381.78 395.03 381.18 394.94 381 394.77 380.91 394.53 380.91 394.35 380.91 394.2 380.79 394.08 380.64 393.93 380.52 393.54 380.43 393.36 380.33 393.03 380.09 392.65 379.97 392.26 379.97 391.45 380.18 391.06 380.18 389.87 380.18 389.48 380.09 389.18 379.88 388.68 379.31 388.32 379.01 388.11 378.92 387.9 379.01 387.72 379.1 387.54 379.1 386.95 379.1 386.83 379.1 386.32 379.31 385.9 379.4 385.54 379.58 385.39 379.58 385.1 379.58 384.92 379.58 384.53 379.67 384.17 379.61 383.17 379.61 383.02 379.61 382.9 379.61 382.66 379.76 382.54 379.64 382.39 379.58 382.06 379.58 381.88 379.52 381.88 379.4 381.82 379.22 381.7 379.1 381.53 379.16 380.69 379.28 380.54 379.4 380.21 380.09 380.06 380.31 379.88 380.4 379.71 380.4 378.71 380.88 378.62 380.88 378.62 380.97 378.53 381.06 378.41 381.15 378.2 381.24 378.14 381.33 378.14 381.45 378.05 381.54 377.9 381.69 377.7 381.81 377.49 381.87 377.28 381.87 377.1 381.96 377.01 382.17 376.92 382.68 376.83 382.89 376.68 383.07 376.47 383.22 376.23 383.31 375.99 383.55 302.75 383.55Z" class="MsftOfcThm_Accent3_Stroke_v2" stroke="#44883E" stroke-width="1.23" stroke-linejoin="round" fill="none" transform="translate(-45.71 -202.73)"/></g><path d="M331.57 247.91 332.06 248.27 332.12 248.3 332.15 248.37 332.18 248.43 332.18 248.52 332.18 248.64 332.18 248.67 332.18 248.73 332.18 248.79 332.24 248.82 332.3 248.88 332.43 248.91 332.52 248.94 332.61 248.94 332.64 248.97 332.67 249.06 332.67 249.13 332.67 249.19 332.67 249.28 332.7 249.34 332.79 249.4 333.25 249.61 333.37 249.64 333.43 249.64 333.64 249.73 334.1 249.98 334.16 250.01 334.16 250.07 334.04 250.19 333.94 250.28 333.79 250.4 333.73 250.4 333.64 250.4 332.97 250.28 332.88 250.31 332.85 250.34 332.7 250.49 332.67 250.62 332.64 250.65 332.55 250.68 332.52 250.68 332.36 250.55 332.3 250.55 332.24 250.55 332.21 250.58 332.12 250.65 332.09 250.71 331.94 250.98 331.88 251.07 331.82 251.16 331.79 251.19 331.73 251.22 331.7 251.28 331.7 251.31 331.73 251.41 331.76 251.47 331.76 251.53 331.7 251.65 331.67 251.71 331.67 251.74 331.7 251.89 331.76 251.95 331.76 252.01 331.79 252.13 331.79 252.23 331.76 252.35 331.64 252.68 331.61 252.77 331.61 252.83 331.55 252.96 331.3 253.08 331.21 253.17 331.18 253.29 331.18 253.5 331.3 254.14 331.36 254.47 331.36 254.66 331.27 254.99 331.27 255.05 331.27 255.17 331.36 255.63 331.36 255.75 331.36 255.9 331.33 256.06 331.3 256.12 331.27 256.15 331.24 256.21 331.15 256.27 331.12 256.3 331.06 256.33 331.06 256.39 331 256.48 330.94 256.66 330.91 256.73 330.88 256.79 330.82 256.82 330.79 256.82 330.73 256.82 330.66 256.79 330.45 256.63 329.9 256.45 329.81 256.39 329.75 256.36 329.72 256.33 329.66 256.24 329.51 255.9 329.45 255.66 329.39 255.02 329.36 254.78 329.33 254.69 329.3 254.63 329.24 254.63 329.18 254.63 329.15 254.69 329.08 254.72 329.06 254.84 329.02 254.87 328.96 254.87 328.9 254.87 328.87 254.84 328.81 254.81 328.51 254.51 328.48 254.44 328.45 254.38 328.45 254.29 328.42 254.2 328.45 254.08 328.45 254.02 328.42 253.96 328.26 253.84 328.26 253.75 328.26 253.59 328.33 253.23 328.36 253.08 328.36 252.96 328.26 252.59 328.24 252.1 328.24 251.95 328.36 251.41 328.39 251.13 328.42 251.04 328.54 250.71 328.57 250.62 328.57 250.52 328.54 250.46 328.54 250.4 328.54 250.34 328.54 250.25 328.54 250.19 328.6 250.1 328.69 249.98 328.75 249.88 329.81 249.16 331.33 247.97 331.57 247.91Z" class="MsftOfcThm_Accent3_Stroke_v2" stroke="#44883E" fill="none"/><path d="M331.57 247.91 332.06 248.27 332.12 248.3 332.15 248.37 332.18 248.43 332.18 248.52 332.18 248.64 332.18 248.67 332.18 248.73 332.18 248.79 332.24 248.82 332.3 248.88 332.43 248.91 332.52 248.94 332.61 248.94 332.64 248.97 332.67 249.06 332.67 249.13 332.67 249.19 332.67 249.28 332.7 249.34 332.79 249.4 333.25 249.61 333.37 249.64 333.43 249.64 333.64 249.73 334.1 249.98 334.16 250.01 334.16 250.07 334.04 250.19 333.94 250.28 333.79 250.4 333.73 250.4 333.64 250.4 332.97 250.28 332.88 250.31 332.85 250.34 332.7 250.49 332.67 250.62 332.64 250.65 332.55 250.68 332.52 250.68 332.36 250.55 332.3 250.55 332.24 250.55 332.21 250.58 332.12 250.65 332.09 250.71 331.94 250.98 331.88 251.07 331.82 251.16 331.79 251.19 331.73 251.22 331.7 251.28 331.7 251.31 331.73 251.41 331.76 251.47 331.76 251.53 331.7 251.65 331.67 251.71 331.67 251.74 331.7 251.89 331.76 251.95 331.76 252.01 331.79 252.13 331.79 252.23 331.76 252.35 331.64 252.68 331.61 252.77 331.61 252.83 331.55 252.96 331.3 253.08 331.21 253.17 331.18 253.29 331.18 253.5 331.3 254.14 331.36 254.47 331.36 254.66 331.27 254.99 331.27 255.05 331.27 255.17 331.36 255.63 331.36 255.75 331.36 255.9 331.33 256.06 331.3 256.12 331.27 256.15 331.24 256.21 331.15 256.27 331.12 256.3 331.06 256.33 331.06 256.39 331 256.48 330.94 256.66 330.91 256.73 330.88 256.79 330.82 256.82 330.79 256.82 330.73 256.82 330.66 256.79 330.45 256.63 329.9 256.45 329.81 256.39 329.75 256.36 329.72 256.33 329.66 256.24 329.51 255.9 329.45 255.66 329.39 255.02 329.36 254.78 329.33 254.69 329.3 254.63 329.24 254.63 329.18 254.63 329.15 254.69 329.08 254.72 329.06 254.84 329.02 254.87 328.96 254.87 328.9 254.87 328.87 254.84 328.81 254.81 328.51 254.51 328.48 254.44 328.45 254.38 328.45 254.29 328.42 254.2 328.45 254.08 328.45 254.02 328.42 253.96 328.26 253.84 328.26 253.75 328.26 253.59 328.33 253.23 328.36 253.08 328.36 252.96 328.26 252.59 328.24 252.1 328.24 251.95 328.36 251.41 328.39 251.13 328.42 251.04 328.54 250.71 328.57 250.62 328.57 250.52 328.54 250.46 328.54 250.4 328.54 250.34 328.54 250.25 328.54 250.19 328.6 250.1 328.69 249.98 328.75 249.88 329.81 249.16 331.33 247.97 331.57 247.91Z" class="MsftOfcThm_Accent3_Stroke_v2" stroke="#44883E" stroke-width="1.23" stroke-linejoin="round" fill="none"/><g clip-path="url(#clip-path)"><path d="M384.19 477.3 383.19 476.76 381.19 475.76 379.19 474.76 377.19 473.76 375.19 472.76 373.19 471.76 371.19 470.76 369.19 469.76 368.95 469.63 368.44 469.63 368.2 469.57 368.08 469.51 368.08 469.51 368.74 468.43 368.86 468.22 368.92 467.98 368.92 467.71 368.92 467.59 368.77 467.23 368.65 467.17 368.53 467.17 368.44 467.17 368.38 467.08 368.32 466.99 368.32 466.9 368.32 466.81 368.32 466.33 368.32 466.27 368.32 466.21 368.32 466.15 368.26 465.91 368.26 465.82 368.17 465.67 367.84 465.42 367.66 465.24 367.6 465 367.6 464.88 367.72 464.67 367.72 464.61 367.72 464.46 367.72 464.37 367.63 464.19 367.45 463.53 367.45 463.38 367.36 463.26 367.36 462.99 367.44 462.54 367.36 462.3 367.03 462.06 366.97 461.88 366.97 461.58 367.03 461.36 366.97 461.24 366.73 461.12 366.55 461.12 366.46 461.12 366.37 461.03 366.28 460.91 366.22 460.79 366.22 460.7 366.1 460.64 365.86 460.64 364.67 460.04 364.58 460.04 364.4 459.98 364.31 459.98 364.25 459.98 364.07 460.13 364.07 460.13 363 460.55 362.85 460.49 362.79 460.28 362.67 460.13 362.49 460.01 362.34 460.01 362.25 460.01 362.1 460.13 361.98 460.13 361.74 460.13 361.65 460.13 361.53 460.22 361.38 460.37 361.3 460.55 361.21 460.7 361.09 461.3 361.03 461.48 360.88 461.3 360.7 461.18 360.52 461.18 360.43 461.18 360.34 461.18 359.86 461.3 359.59 461.3 359.41 461.24 359.3 461.12 359.21 461.03 359 461.03 358.91 461.09 358.67 461.39 358.67 461.49 358.67 461.55 358.58 461.7 358.58 461.76 358.58 461.85 358.58 461.94 358.58 462 358.58 462.06 358.58 462.36 358.58 462.48 358.64 462.63 358.7 462.72 358.82 462.81 358.94 462.9 359.06 462.9 359.32 462.9 359.44 462.9 359.5 463.02 358.7 463.26 358.58 463.17 358.19 462.75 358.1 462.48 358.1 462.09 358.1 461.79 358.1 461.73 357.83 461.58 357.74 461.58 357.59 461.58 357.44 461.64 357.38 461.73 357.32 461.82 357.32 461.88 357.09 461.88 356.85 461.7 356.61 461.58 356.31 461.67 356.16 461.49 356.07 461.39 355.98 461.39 355.74 461.39 355.62 461.39 355.47 461.15 355.29 461.15 354.85 461.15 354.7 461.03 354.4 460.67 354.28 460.58 353.53 460.58 353.44 460.58 353.26 460.43 353.17 460.43 353.08 460.43 353 460.52 352.88 460.52 352.79 460.52 352.7 460.46 352.61 460.46 352.49 460.52 352.07 461.24 352 461 351.37 460.91 351.07 460.79 350.87 460.79 350.72 460.79 350.66 460.79 350.6 460.97 350.45 460.91 350.3 460.82 350.09 460.76 349.49 460.7 349.31 460.61 349.19 460.52 348.9 460.52 348.54 460.52 348.48 460.52 348.39 460.43 348.33 460.31 348.33 460.19 348.27 460.1 348.09 459.98 347.91 459.98 347.7 459.98 347.07 460.16 346.69 460.16 346.3 459.98 344.72 458.63 344.39 458.45 344 458.45 343.61 458.57 342.93 458.96 342.54 458.96 342.15 458.87 341.76 458.75 341.46 458.66 340.6 458.66 339.55 458.87 339.4 458.93 339.25 459.08 339.25 459.17 339.16 459.83 338.95 460.22 338.89 460.43 338.98 460.64 339.13 460.82 339.28 461.03 339.37 461.28 339.28 461.46 339.1 461.46 338.69 461.25 338.51 461.25 338.33 461.32 337.94 461.74 337.76 461.86 337.37 461.92 337.13 461.92 337.01 461.83 337.01 461.71 337.01 461.65 336.92 461.65 336.84 461.65 336.84 461.59 336.75 461.5 336.63 461.32 336.45 461.25 336.06 461.25 335.88 461.16 334.88 459.93 334.53 459.81 334.38 459.63 334.26 459.42 333.84 458.31 333.63 457.89 333.36 457.62 333.24 457.62 333.03 457.62 332.91 457.62 332.83 457.56 332.71 457.38 332.56 457.29 332.38 457.1 332.38 457.04 332.38 456.98 332.29 456.92 332.17 456.92 332.08 456.92 331.81 456.59 331.36 455.87 331.03 455.66 330.62 455.6 330.41 455.51 330.26 455.15 330.08 455.03 329.51 454.79 329.15 454.55 328.94 454.34 328.85 454.28 328.77 454.22 328.56 454.16 328.5 454.16 328.5 454.07 328.41 454.01 328.02 453.8 327.27 453.68 326.77 453.35 326.68 453.26 326.62 453.13 326.62 452.98 326.62 452.89 326.68 452.83 326.68 452.71 326.68 452.29 326.59 452.08 326.44 451.9 326.29 451.81 325.48 451.63 325.27 451.51 325.09 451.39 325 451.3 324.79 450.91 324.62 450.49 324.47 450.04 324.41 449.35 324.32 449.05 324.32 448.77 324.41 448.56 324.41 448.44 324.41 448.35 324.41 448.29 324.41 448.17 324.41 448.05 324.41 448.05 324.47 447.99 324.53 447.9 324.53 447.81 324.53 447.72 324.47 447.57 324.47 447.45 324.53 447.27 324.53 447.15 324.47 447.09 324.23 446.88 324 446.88 323.85 446.97 323.73 446.97 323.67 446.73 323.58 446.55 323.43 446.49 323.25 446.43 323.16 446.31 322.56 445.98 322.45 445.98 321.58 445.89 321.25 445.68 321.07 445.62 321.01 445.77 320.95 445.86 320.8 445.77 320.51 445.5 320.42 445.5 320.36 445.56 320.3 445.62 320.03 445.74 320.03 445.74 319.94 445.59 319.94 445.47 319.94 445.23 319.88 445.14 319.82 445.05 319.55 444.92 319.43 444.8 319.37 444.71 319.28 444.71 319.19 444.71 318.98 444.8 318.86 444.8 318.68 444.89 318.62 445.11 318.54 445.59 318.54 445.65 318.54 445.71 318.48 445.77 318.48 446.04 318.48 446.13 318.48 446.13 318.42 446.31 318.36 446.37 318.24 446.37 318.09 446.37 317.91 446.37 317.82 446.37 317.82 446.46 317.82 446.67 317.91 446.85 317.91 446.97 317.76 447.03 317.58 446.88 317.46 446.88 317.31 446.88 317.1 446.88 317.04 446.82 316.92 446.76 316.83 446.67 316.83 446.61 316.83 446.25 316.56 445.65 316.36 445.41 316.36 445.32 316.36 445.2 316.36 445.11 316.36 445.05 316.36 444.95 316.27 444.83 315.7 444.32 315.61 444.17 315.46 443.17 315.46 442.96 315.52 442.72 315.7 442.39 315.76 442.18 315.67 442 315.55 442 315.4 442 315.19 442 315.04 441.91 314.83 441.73 314.65 441.52 314.53 441.31 314.48 441.31 314.42 441.25 314.42 441.16 314.42 440.92 314.42 440.64 314.33 440.4 314.33 440.4 314.21 440.4 314 440.4 313.91 440.34 313.76 440.16 313.67 440.07 313.55 440.01 313.34 440.01 313.28 440.01 313.13 440.1 313.01 440.1 312.86 439.71 312.62 439.47 312.39 439.47 311.91 439.59 311.79 439.59 311.7 439.59 311.58 439.59 311.49 439.53 311.28 439.62 311.13 439.68 310.71 439.68 310.48 439.62 310.06 439.41 309.85 439.41 309.46 439.47 309.1 439.68 308.77 439.92 308.53 440.16 308.33 440.49 308.21 440.64 308 440.64 307.91 440.64 307.85 440.58 307.79 440.46 307.79 440.22 307.7 440.16 307.22 440.16 307.1 440.1 306.83 439.89 306.77 439.89 306.59 439.8 306.39 439.8 306.18 439.89 306.06 439.89 305.97 439.8 305.85 439.56 305.76 439.5 305.64 439.5 305.52 439.38 305.46 439.29 305.37 439.23 305.37 439.23 305.25 439.17 305.19 439.17 305.13 439.17 305.01 439.29 304.95 439.29 304.77 439.29 304.71 439.23 304.62 439.14 304.5 439.05 304.27 438.99 303.46 438.99 303.25 438.84 303.04 438.48 302.92 438.3 302.74 438.15 302.74 484.49 302.74 484.49 302.74 485.75C303.314 486.068 303.848 486.454 304.33 486.9 306.51 489.1 308.33 489.48 308.89 487.9 309.18 487.09 309.59 487.09 310.95 487.9 311.999 488.48 313.164 488.822 314.36 488.9 315.728 489.089 317.018 489.649 318.09 490.52 318.954 491.156 319.948 491.593 321 491.8 322.236 492.187 323.421 492.721 324.53 493.39 325.61 493.98 326.66 493.48 329.3 491.02 331.17 489.28 333.49 487.72 334.44 487.59 335.65 487.41 336.19 486.78 336.2 485.39 336.2 482.98 337.56 482.39 339.03 484.16 339.98 485.31 339.87 485.69 338.32 486.96 336.39 488.53 337 489.47 340.2 489.96 343.09 490.41 346.2 492.14 346.68 493.54 346.795 494.221 347.441 494.679 348.121 494.563 348.158 494.557 348.194 494.549 348.23 494.54 348.84 494.31 349.79 494.85 350.35 495.75 351.52 497.64 352.65 497.3 352.65 495.03 352.65 494.16 352.99 493.43 353.42 493.43 353.85 493.43 356.12 491.43 358.42 489.01 363.66 483.44 365.93 482.39 374.15 481.67 380.56 481.12 383.3 480.12 384.24 477.34" class="MsftOfcThm_Accent3_Stroke_v2" stroke="#44883E" fill="none" transform="translate(-45.71 -202.73)"/><path d="M384.19 477.3 383.19 476.76 381.19 475.76 379.19 474.76 377.19 473.76 375.19 472.76 373.19 471.76 371.19 470.76 369.19 469.76 368.95 469.63 368.44 469.63 368.2 469.57 368.08 469.51 368.08 469.51 368.74 468.43 368.86 468.22 368.92 467.98 368.92 467.71 368.92 467.59 368.77 467.23 368.65 467.17 368.53 467.17 368.44 467.17 368.38 467.08 368.32 466.99 368.32 466.9 368.32 466.81 368.32 466.33 368.32 466.27 368.32 466.21 368.32 466.15 368.26 465.91 368.26 465.82 368.17 465.67 367.84 465.42 367.66 465.24 367.6 465 367.6 464.88 367.72 464.67 367.72 464.61 367.72 464.46 367.72 464.37 367.63 464.19 367.45 463.53 367.45 463.38 367.36 463.26 367.36 462.99 367.44 462.54 367.36 462.3 367.03 462.06 366.97 461.88 366.97 461.58 367.03 461.36 366.97 461.24 366.73 461.12 366.55 461.12 366.46 461.12 366.37 461.03 366.28 460.91 366.22 460.79 366.22 460.7 366.1 460.64 365.86 460.64 364.67 460.04 364.58 460.04 364.4 459.98 364.31 459.98 364.25 459.98 364.07 460.13 364.07 460.13 363 460.55 362.85 460.49 362.79 460.28 362.67 460.13 362.49 460.01 362.34 460.01 362.25 460.01 362.1 460.13 361.98 460.13 361.74 460.13 361.65 460.13 361.53 460.22 361.38 460.37 361.3 460.55 361.21 460.7 361.09 461.3 361.03 461.48 360.88 461.3 360.7 461.18 360.52 461.18 360.43 461.18 360.34 461.18 359.86 461.3 359.59 461.3 359.41 461.24 359.3 461.12 359.21 461.03 359 461.03 358.91 461.09 358.67 461.39 358.67 461.49 358.67 461.55 358.58 461.7 358.58 461.76 358.58 461.85 358.58 461.94 358.58 462 358.58 462.06 358.58 462.36 358.58 462.48 358.64 462.63 358.7 462.72 358.82 462.81 358.94 462.9 359.06 462.9 359.32 462.9 359.44 462.9 359.5 463.02 358.7 463.26 358.58 463.17 358.19 462.75 358.1 462.48 358.1 462.09 358.1 461.79 358.1 461.73 357.83 461.58 357.74 461.58 357.59 461.58 357.44 461.64 357.38 461.73 357.32 461.82 357.32 461.88 357.09 461.88 356.85 461.7 356.61 461.58 356.31 461.67 356.16 461.49 356.07 461.39 355.98 461.39 355.74 461.39 355.62 461.39 355.47 461.15 355.29 461.15 354.85 461.15 354.7 461.03 354.4 460.67 354.28 460.58 353.53 460.58 353.44 460.58 353.26 460.43 353.17 460.43 353.08 460.43 353 460.52 352.88 460.52 352.79 460.52 352.7 460.46 352.61 460.46 352.49 460.52 352.07 461.24 352 461 351.37 460.91 351.07 460.79 350.87 460.79 350.72 460.79 350.66 460.79 350.6 460.97 350.45 460.91 350.3 460.82 350.09 460.76 349.49 460.7 349.31 460.61 349.19 460.52 348.9 460.52 348.54 460.52 348.48 460.52 348.39 460.43 348.33 460.31 348.33 460.19 348.27 460.1 348.09 459.98 347.91 459.98 347.7 459.98 347.07 460.16 346.69 460.16 346.3 459.98 344.72 458.63 344.39 458.45 344 458.45 343.61 458.57 342.93 458.96 342.54 458.96 342.15 458.87 341.76 458.75 341.46 458.66 340.6 458.66 339.55 458.87 339.4 458.93 339.25 459.08 339.25 459.17 339.16 459.83 338.95 460.22 338.89 460.43 338.98 460.64 339.13 460.82 339.28 461.03 339.37 461.28 339.28 461.46 339.1 461.46 338.69 461.25 338.51 461.25 338.33 461.32 337.94 461.74 337.76 461.86 337.37 461.92 337.13 461.92 337.01 461.83 337.01 461.71 337.01 461.65 336.92 461.65 336.84 461.65 336.84 461.59 336.75 461.5 336.63 461.32 336.45 461.25 336.06 461.25 335.88 461.16 334.88 459.93 334.53 459.81 334.38 459.63 334.26 459.42 333.84 458.31 333.63 457.89 333.36 457.62 333.24 457.62 333.03 457.62 332.91 457.62 332.83 457.56 332.71 457.38 332.56 457.29 332.38 457.1 332.38 457.04 332.38 456.98 332.29 456.92 332.17 456.92 332.08 456.92 331.81 456.59 331.36 455.87 331.03 455.66 330.62 455.6 330.41 455.51 330.26 455.15 330.08 455.03 329.51 454.79 329.15 454.55 328.94 454.34 328.85 454.28 328.77 454.22 328.56 454.16 328.5 454.16 328.5 454.07 328.41 454.01 328.02 453.8 327.27 453.68 326.77 453.35 326.68 453.26 326.62 453.13 326.62 452.98 326.62 452.89 326.68 452.83 326.68 452.71 326.68 452.29 326.59 452.08 326.44 451.9 326.29 451.81 325.48 451.63 325.27 451.51 325.09 451.39 325 451.3 324.79 450.91 324.62 450.49 324.47 450.04 324.41 449.35 324.32 449.05 324.32 448.77 324.41 448.56 324.41 448.44 324.41 448.35 324.41 448.29 324.41 448.17 324.41 448.05 324.41 448.05 324.47 447.99 324.53 447.9 324.53 447.81 324.53 447.72 324.47 447.57 324.47 447.45 324.53 447.27 324.53 447.15 324.47 447.09 324.23 446.88 324 446.88 323.85 446.97 323.73 446.97 323.67 446.73 323.58 446.55 323.43 446.49 323.25 446.43 323.16 446.31 322.56 445.98 322.45 445.98 321.58 445.89 321.25 445.68 321.07 445.62 321.01 445.77 320.95 445.86 320.8 445.77 320.51 445.5 320.42 445.5 320.36 445.56 320.3 445.62 320.03 445.74 320.03 445.74 319.94 445.59 319.94 445.47 319.94 445.23 319.88 445.14 319.82 445.05 319.55 444.92 319.43 444.8 319.37 444.71 319.28 444.71 319.19 444.71 318.98 444.8 318.86 444.8 318.68 444.89 318.62 445.11 318.54 445.59 318.54 445.65 318.54 445.71 318.48 445.77 318.48 446.04 318.48 446.13 318.48 446.13 318.42 446.31 318.36 446.37 318.24 446.37 318.09 446.37 317.91 446.37 317.82 446.37 317.82 446.46 317.82 446.67 317.91 446.85 317.91 446.97 317.76 447.03 317.58 446.88 317.46 446.88 317.31 446.88 317.1 446.88 317.04 446.82 316.92 446.76 316.83 446.67 316.83 446.61 316.83 446.25 316.56 445.65 316.36 445.41 316.36 445.32 316.36 445.2 316.36 445.11 316.36 445.05 316.36 444.95 316.27 444.83 315.7 444.32 315.61 444.17 315.46 443.17 315.46 442.96 315.52 442.72 315.7 442.39 315.76 442.18 315.67 442 315.55 442 315.4 442 315.19 442 315.04 441.91 314.83 441.73 314.65 441.52 314.53 441.31 314.48 441.31 314.42 441.25 314.42 441.16 314.42 440.92 314.42 440.64 314.33 440.4 314.33 440.4 314.21 440.4 314 440.4 313.91 440.34 313.76 440.16 313.67 440.07 313.55 440.01 313.34 440.01 313.28 440.01 313.13 440.1 313.01 440.1 312.86 439.71 312.62 439.47 312.39 439.47 311.91 439.59 311.79 439.59 311.7 439.59 311.58 439.59 311.49 439.53 311.28 439.62 311.13 439.68 310.71 439.68 310.48 439.62 310.06 439.41 309.85 439.41 309.46 439.47 309.1 439.68 308.77 439.92 308.53 440.16 308.33 440.49 308.21 440.64 308 440.64 307.91 440.64 307.85 440.58 307.79 440.46 307.79 440.22 307.7 440.16 307.22 440.16 307.1 440.1 306.83 439.89 306.77 439.89 306.59 439.8 306.39 439.8 306.18 439.89 306.06 439.89 305.97 439.8 305.85 439.56 305.76 439.5 305.64 439.5 305.52 439.38 305.46 439.29 305.37 439.23 305.37 439.23 305.25 439.17 305.19 439.17 305.13 439.17 305.01 439.29 304.95 439.29 304.77 439.29 304.71 439.23 304.62 439.14 304.5 439.05 304.27 438.99 303.46 438.99 303.25 438.84 303.04 438.48 302.92 438.3 302.74 438.15 302.74 484.49 302.74 484.49 302.74 485.75C303.314 486.068 303.848 486.454 304.33 486.9 306.51 489.1 308.33 489.48 308.89 487.9 309.18 487.09 309.59 487.09 310.95 487.9 311.999 488.48 313.164 488.822 314.36 488.9 315.728 489.089 317.018 489.649 318.09 490.52 318.954 491.156 319.948 491.593 321 491.8 322.236 492.187 323.421 492.721 324.53 493.39 325.61 493.98 326.66 493.48 329.3 491.02 331.17 489.28 333.49 487.72 334.44 487.59 335.65 487.41 336.19 486.78 336.2 485.39 336.2 482.98 337.56 482.39 339.03 484.16 339.98 485.31 339.87 485.69 338.32 486.96 336.39 488.53 337 489.47 340.2 489.96 343.09 490.41 346.2 492.14 346.68 493.54 346.795 494.221 347.441 494.679 348.121 494.563 348.158 494.557 348.194 494.549 348.23 494.54 348.84 494.31 349.79 494.85 350.35 495.75 351.52 497.64 352.65 497.3 352.65 495.03 352.65 494.16 352.99 493.43 353.42 493.43 353.85 493.43 356.12 491.43 358.42 489.01 363.66 483.44 365.93 482.39 374.15 481.67 380.51 481.08 383.25 480.08 384.19 477.3Z" class="MsftOfcThm_Accent3_Stroke_v2" stroke="#44883E" stroke-width="1.23" stroke-linejoin="round" fill="none" transform="translate(-45.71 -202.73)"/><path d="M302.43 484 302.43 485.37 302.6 485.37 302.6 484Z" class="MsftOfcThm_Accent3_Stroke_v2" stroke="#44883E" fill="none" transform="translate(-45.71 -202.73)"/><path d="M302.43 484 302.43 485.37 302.6 485.37 302.6 484Z" class="MsftOfcThm_Accent3_Stroke_v2" stroke="#44883E" stroke-width="1.23" stroke-linejoin="round" fill="none" transform="translate(-45.71 -202.73)"/><path d="M275.34 353 192.8 353 192.8 413.53C196.677 412.657 200.636 412.195 204.61 412.15 207.009 412.102 209.399 411.838 211.75 411.36 212.94 410.96 214.75 411.71 218.16 414.04 221.08 416.04 223.26 416.96 223.77 416.53 224.93 415.53 226.72 415.97 229.35 417.7 230.842 418.587 232.519 419.114 234.25 419.24 235.151 419.241 236.044 419.414 236.88 419.75 237.53 420.07 237.88 420.86 238.58 421.37 238.99 421.69 239.75 421.59 239.95 422.15 240.63 424.01 239.31 427.25 240.04 428.1 240.695 428.868 241.61 429.37 242.61 429.51 244.333 429.59 245.726 430.941 245.86 432.66 246.181 433.933 246.853 435.091 247.8 436 249.057 437.524 249.909 439.34 250.28 441.28 250.62 443.42 249.11 442.6 248.72 443.28 248.21 444.11 251.63 447.68 253.5 448.28 254.46 448.63 255.387 449.065 256.27 449.58 257.32 450.19 258.57 449.66 257.59 448.07 256.8 446.81 255.86 444.17 256.96 444.17 257.35 444.17 258.33 442.89 259.17 441.31 260.394 439.225 262.271 437.601 264.51 436.69 267.45 435.3 268.51 434.26 269.23 432.06 269.7 430.267 270.684 428.651 272.06 427.41 273 426.19 272.82 423.99 273.43 424.13 274.33 424.33 274.43 427.13 274.43 428.46 274.43 429.08 273.12 430.28 273.38 431.28 273.591 432.78 273.134 434.297 272.13 435.43 270.91 437.08 270.31 439.3 270.07 443 269.76 447.9 269.64 448.22 267.83 448.22 266.547 448.207 265.398 449.01 264.97 450.22 263.8 452.79 264.33 453.3 267.06 452.22 268.364 451.744 269.733 451.471 271.12 451.41 272.72 451.41 273.12 450.87 273.53 447.95 273.79 446.15 274.263 444.388 274.94 442.7 275.82 440.89 275.81 440.92 277.35 443.48 279.54 447.1 280.18 451.84 277.95 453.78 277.29 454.367 276.876 455.181 276.79 456.06 276.79 456.91 280.25 457.12 280.79 456.25 281.55 455.02 285.62 457.48 287.9 460.51 290.41 463.85 292.22 469.74 291.09 470.87 289.96 472 290.66 475.18 292.34 477.03 293.09 477.85 294.73 479.84 295.99 481.51 297.52 483.51 298.88 484.51 300.19 484.51 301.036 484.62 301.845 484.929 302.55 485.41L302.55 437.86 302.73 438.01 302.85 438.19 302.85 353 275.34 353Z" class="MsftOfcThm_Accent3_Stroke_v2" stroke="#44883E" fill="none" transform="translate(-45.71 -202.73)"/><path d="M275.34 353 192.8 353 192.8 413.53C196.677 412.657 200.636 412.195 204.61 412.15 207.009 412.102 209.399 411.838 211.75 411.36 212.94 410.96 214.75 411.71 218.16 414.04 221.08 416.04 223.26 416.96 223.77 416.53 224.93 415.53 226.72 415.97 229.35 417.7 230.842 418.587 232.519 419.114 234.25 419.24 235.151 419.241 236.044 419.414 236.88 419.75 237.53 420.07 237.88 420.86 238.58 421.37 238.99 421.69 239.75 421.59 239.95 422.15 240.63 424.01 239.31 427.25 240.04 428.1 240.695 428.868 241.61 429.37 242.61 429.51 244.333 429.59 245.726 430.941 245.86 432.66 246.181 433.933 246.853 435.091 247.8 436 249.057 437.524 249.909 439.34 250.28 441.28 250.62 443.42 249.11 442.6 248.72 443.28 248.21 444.11 251.63 447.68 253.5 448.28 254.46 448.63 255.387 449.065 256.27 449.58 257.32 450.19 258.57 449.66 257.59 448.07 256.8 446.81 255.86 444.17 256.96 444.17 257.35 444.17 258.33 442.89 259.17 441.31 260.394 439.225 262.271 437.601 264.51 436.69 267.45 435.3 268.51 434.26 269.23 432.06 269.7 430.267 270.684 428.651 272.06 427.41 273 426.19 272.82 423.99 273.43 424.13 274.33 424.33 274.43 427.13 274.43 428.46 274.43 429.08 273.12 430.28 273.38 431.28 273.591 432.78 273.134 434.297 272.13 435.43 270.91 437.08 270.31 439.3 270.07 443 269.76 447.9 269.64 448.22 267.83 448.22 266.547 448.207 265.398 449.01 264.97 450.22 263.8 452.79 264.33 453.3 267.06 452.22 268.364 451.744 269.733 451.471 271.12 451.41 272.72 451.41 273.12 450.87 273.53 447.95 273.79 446.15 274.263 444.388 274.94 442.7 275.82 440.89 275.81 440.92 277.35 443.48 279.54 447.1 280.18 451.84 277.95 453.78 277.29 454.367 276.876 455.181 276.79 456.06 276.79 456.91 280.25 457.12 280.79 456.25 281.55 455.02 285.62 457.48 287.9 460.51 290.41 463.85 292.22 469.74 291.09 470.87 289.96 472 290.66 475.18 292.34 477.03 293.09 477.85 294.73 479.84 295.99 481.51 297.52 483.51 298.88 484.51 300.19 484.51 301.036 484.62 301.845 484.929 302.55 485.41L302.55 437.86 302.73 438.01 302.85 438.19 302.85 353 275.34 353Z" class="MsftOfcThm_Accent3_Stroke_v2" stroke="#44883E" stroke-width="1.23" stroke-linejoin="round" fill="none" transform="translate(-45.71 -202.73)"/><path d="M192.9 353.09 192.9 243.66C192.329 243.618 191.761 243.538 191.2 243.42 188.6 242.75 187.81 242.87 186.49 244.08 185.62 244.87 184.91 245.08 184.91 244.65 184.91 244.22 185.13 241.82 184.07 241.22 183.2 240.73 182.38 239.47 180.94 237.8 179.5 236.13 177.63 234.8 176.79 234.8 175.95 234.8 175.27 234.43 175.27 233.99 175.27 232.17 172.21 233.23 171.72 235.22 171.44 236.35 170.88 237.06 170.47 236.81 170.06 236.56 169.15 235.53 168.77 236.42 168.18 237.8 167.35 237.42 167.3 236.21 167.24 234.67 166.04 234.32 165.25 235.61 164.97 236.05 165.93 237.16 165.39 238.31 164.3 240.64 162.89 239.67 163.39 237.2 163.56 236.2 161.1 237.68 161.39 238.37 161.98 239.93 159.39 241.09 158.52 239.66 157.65 238.23 156.76 240.05 157.36 242.45 157.74 243.99 157.54 244.5 156.61 244.5 155.765 244.652 155.087 245.286 154.88 246.12 154.6 247.01 154.09 247.59 153.75 247.38 153.41 247.17 152.65 247.65 151.36 248.04 150.07 248.43 151.12 251.76 150.56 257.23 150.39 258.85 149 258.39 148.41 256.51 148.05 255.36 146.19 256.46 144.53 255.7 142.87 254.94 142.14 254.95 141.46 255.64 140.78 256.33 140.91 256.64 141.93 257.08 143.22 257.58 143.72 257.56 142.29 259.08 140.2 261.33 143.95 260.76 144.83 263.71 145 264.27 143.17 264.71 142.89 265.71 142.39 267.46 142.34 267.46 141.1 265.11 140.478 263.897 139.738 262.748 138.89 261.68 137.89 260.5 138.56 259.75 138.95 259.16 139.85 257.8 138.78 258.46 137.34 258.44 135.9 258.42 133.13 262.34 130.75 265.92 130.22 266.7 130.14 269.16 130.57 271.71 130.72 272.61 132.23 273.54 132.03 274.39 131.5 276.56 127.35 278.39 127.03 278.39 126.71 278.39 126.09 279.5 125.62 280.85 124.407 284.63 121.791 287.801 118.31 289.71 113.977 291.822 109.23 292.946 104.41 293 102.19 292.9 101.17 293.3 100.41 294.53 99.65 295.76 98.54 296.15 96.47 296.15 95.0215 296.059 93.5923 296.52 92.47 297.44 90.86 299.44 87.86 300.3 84.78 299.72 82.88 299.37 82.78 296.72 80.21 298.07 79.06 298.67 77.67 300.86 76.07 301.86 74.1724 303.066 72.3734 304.42 70.69 305.91 68.8906 307.416 66.866 308.631 64.69 309.51 62.7782 310.218 61.0638 311.374 59.69 312.88 59 313.88 58.69 317.17 57.87 317.17 57.29 317.17 56.77 316.65 56.77 314.86 56.77 314.29 57.04 313.3 57.1 312.55 57.35 309.4 55.79 310.55 53.94 314.89 52.59 318.04 52.35 319.48 52.94 320.8 53.94 322.97 53.41 326.26 51.42 330.56 49.6 334.48 49.53 336.48 51.03 339.56 51.65 340.82 52.83 343.33 53.69 345.12 54.55 346.91 55.77 349.27 56.43 350.37 57.4178 351.771 57.6639 353.565 57.09 355.18L56.46 357C56.2 357.65 55.81 355.57 55.03 354.33 54.5 353.47 53.6 353.71 53.15 352.68 52.7 351.65 53.15 351.36 52.88 351.03 50.96 348.08 49.47 348.85 51.12 352.35 51.6231 353.552 52.3301 354.659 53.21 355.62 54.21 356.26 54.21 359.22 53.21 359.22 52.77 359.22 51.92 357.96 51.27 356.4 50.62 354.84 49.73 353.58 49.27 353.58 48.81 353.58 48.08 352.28 47.57 350.73 47.06 349.18 45.78 349.73 46.57 351.81 46.7739 352.61 47.0414 353.393 47.37 354.15 48.6238 356.457 50.0937 358.64 51.76 360.67 54.69 364.17 56.62 368.75 56.47 371.84 56.39 373.52 57.13 375.32 58.77 377.39 60.1 379.08 61.22 381.04 61.22 381.72 61.3604 382.706 61.7962 383.626 62.47 384.36 63.28 385.26 63.95 388.36 64.38 392.98 65.01 399.78 67.01 406.18 69.87 410.73 71.16 412.73 71.72 421.33 70.61 422.02 70.21 422.27 70.12 424.02 70.41 425.89 71.22 431.36 68.88 434.89 65.48 433.46 64.92 433.22 64.35 434.14 64.56 437.3 64.84 441.59 64.99 442.12 66.56 442.2 69.2961 442.613 71.7204 444.188 73.21 446.52 73.68 447.41 76.8 448.63 77.39 449.23 77.98 449.83 80.39 450.32 83.3 450.31 85.6694 450.276 88.0367 450.467 90.37 450.88 91.76 451.23 92.75 449.64 94.07 449.35 95.39 449.06 96.37 448.59 96.27 448.29 95.9 447.15 100.06 443.85 102.06 443.7 105.78 443.42 105.96 443.33 106.45 441.39 106.94 439.45 109.99 437.73 113.37 437.69 114.47 437.69 118.55 437.5 122.37 437.3 128.17 437.01 134.01 437.9 136.21 437.99 138.194 438.11 140.186 437.938 142.12 437.48 144.758 436.283 146.726 433.974 147.49 431.18 148.17 428.53 149.37 427.12 150.98 427.12 152.59 427.12 161.26 422.67 163.37 420.82 164.44 419.87 166.28 419.6 170.59 419.74 176.44 419.92 185.77 417.47 190.04 414.66 190.905 414.165 191.838 413.801 192.81 413.58L192.81 353.09Z" class="MsftOfcThm_Accent3_Stroke_v2" stroke="#44883E" fill="none" transform="translate(-45.71 -202.73)"/><path d="M192.9 353.09 192.9 243.66C192.329 243.618 191.761 243.538 191.2 243.42 188.6 242.75 187.81 242.87 186.49 244.08 185.62 244.87 184.91 245.08 184.91 244.65 184.91 244.22 185.13 241.82 184.07 241.22 183.2 240.73 182.38 239.47 180.94 237.8 179.5 236.13 177.63 234.8 176.79 234.8 175.95 234.8 175.27 234.43 175.27 233.99 175.27 232.17 172.21 233.23 171.72 235.22 171.44 236.35 170.88 237.06 170.47 236.81 170.06 236.56 169.15 235.53 168.77 236.42 168.18 237.8 167.35 237.42 167.3 236.21 167.24 234.67 166.04 234.32 165.25 235.61 164.97 236.05 165.93 237.16 165.39 238.31 164.3 240.64 162.89 239.67 163.39 237.2 163.56 236.2 161.1 237.68 161.39 238.37 161.98 239.93 159.39 241.09 158.52 239.66 157.65 238.23 156.76 240.05 157.36 242.45 157.74 243.99 157.54 244.5 156.61 244.5 155.765 244.652 155.087 245.286 154.88 246.12 154.6 247.01 154.09 247.59 153.75 247.38 153.41 247.17 152.65 247.65 151.36 248.04 150.07 248.43 151.12 251.76 150.56 257.23 150.39 258.85 149 258.39 148.41 256.51 148.05 255.36 146.19 256.46 144.53 255.7 142.87 254.94 142.14 254.95 141.46 255.64 140.78 256.33 140.91 256.64 141.93 257.08 143.22 257.58 143.72 257.56 142.29 259.08 140.2 261.33 143.95 260.76 144.83 263.71 145 264.27 143.17 264.71 142.89 265.71 142.39 267.46 142.34 267.46 141.1 265.11 140.478 263.897 139.738 262.748 138.89 261.68 137.89 260.5 138.56 259.75 138.95 259.16 139.85 257.8 138.78 258.46 137.34 258.44 135.9 258.42 133.13 262.34 130.75 265.92 130.22 266.7 130.14 269.16 130.57 271.71 130.72 272.61 132.23 273.54 132.03 274.39 131.5 276.56 127.35 278.39 127.03 278.39 126.71 278.39 126.09 279.5 125.62 280.85 124.407 284.63 121.791 287.801 118.31 289.71 113.977 291.822 109.23 292.946 104.41 293 102.19 292.9 101.17 293.3 100.41 294.53 99.65 295.76 98.54 296.15 96.47 296.15 95.0215 296.059 93.5923 296.52 92.47 297.44 90.86 299.44 87.86 300.3 84.78 299.72 82.88 299.37 82.78 296.72 80.21 298.07 79.06 298.67 77.67 300.86 76.07 301.86 74.1724 303.066 72.3734 304.42 70.69 305.91 68.8906 307.416 66.866 308.631 64.69 309.51 62.7782 310.218 61.0638 311.374 59.69 312.88 59 313.88 58.69 317.17 57.87 317.17 57.29 317.17 56.77 316.65 56.77 314.86 56.77 314.29 57.04 313.3 57.1 312.55 57.35 309.4 55.79 310.55 53.94 314.89 52.59 318.04 52.35 319.48 52.94 320.8 53.94 322.97 53.41 326.26 51.42 330.56 49.6 334.48 49.53 336.48 51.03 339.56 51.65 340.82 52.83 343.33 53.69 345.12 54.55 346.91 55.77 349.27 56.43 350.37 57.4178 351.771 57.6639 353.565 57.09 355.18L56.46 357C56.2 357.65 55.81 355.57 55.03 354.33 54.5 353.47 53.6 353.71 53.15 352.68 52.7 351.65 53.15 351.36 52.88 351.03 50.96 348.08 49.47 348.85 51.12 352.35 51.6231 353.552 52.3301 354.659 53.21 355.62 54.21 356.26 54.21 359.22 53.21 359.22 52.77 359.22 51.92 357.96 51.27 356.4 50.62 354.84 49.73 353.58 49.27 353.58 48.81 353.58 48.08 352.28 47.57 350.73 47.06 349.18 45.78 349.73 46.57 351.81 46.7739 352.61 47.0414 353.393 47.37 354.15 48.6238 356.457 50.0937 358.64 51.76 360.67 54.69 364.17 56.62 368.75 56.47 371.84 56.39 373.52 57.13 375.32 58.77 377.39 60.1 379.08 61.22 381.04 61.22 381.72 61.3604 382.706 61.7962 383.626 62.47 384.36 63.28 385.26 63.95 388.36 64.38 392.98 65.01 399.78 67.01 406.18 69.87 410.73 71.16 412.73 71.72 421.33 70.61 422.02 70.21 422.27 70.12 424.02 70.41 425.89 71.22 431.36 68.88 434.89 65.48 433.46 64.92 433.22 64.35 434.14 64.56 437.3 64.84 441.59 64.99 442.12 66.56 442.2 69.2961 442.613 71.7204 444.188 73.21 446.52 73.68 447.41 76.8 448.63 77.39 449.23 77.98 449.83 80.39 450.32 83.3 450.31 85.6694 450.276 88.0367 450.467 90.37 450.88 91.76 451.23 92.75 449.64 94.07 449.35 95.39 449.06 96.37 448.59 96.27 448.29 95.9 447.15 100.06 443.85 102.06 443.7 105.78 443.42 105.96 443.33 106.45 441.39 106.94 439.45 109.99 437.73 113.37 437.69 114.47 437.69 118.55 437.5 122.37 437.3 128.17 437.01 134.01 437.9 136.21 437.99 138.194 438.11 140.186 437.938 142.12 437.48 144.758 436.283 146.726 433.974 147.49 431.18 148.17 428.53 149.37 427.12 150.98 427.12 152.59 427.12 161.26 422.67 163.37 420.82 164.44 419.87 166.28 419.6 170.59 419.74 176.44 419.92 185.77 417.47 190.04 414.66 190.905 414.165 191.838 413.801 192.81 413.58L192.81 353.09Z" class="MsftOfcThm_Accent3_Stroke_v2" stroke="#44883E" stroke-width="1.23" stroke-linejoin="round" fill="none" transform="translate(-45.71 -202.73)"/><path d="M262 232.56C261.14 232.63 260.61 232.99 260.83 233.35 261.05 233.71 261.57 234.04 261.1 234.04 259.66 234.51 259.61 234.89 259.88 236.14 259.83 237.43 260.43 238 262.23 238.36 263.56 238.63 265.01 238.45 265.46 238 265.91 237.55 265.81 237.19 264.89 237.19 263.39 237.19 263.08 235.97 264.35 235.19 264.805 234.895 265.103 234.41 265.16 233.87 265.16 233.42 264.8 233.29 264.35 233.57 263.9 233.85 263.55 233.71 263.55 233.27 263.55 232.83 262.85 232.51 262 232.57M275.37 259.73C275.025 259.518 274.691 259.288 274.37 259.04 272.821 257.655 271.147 256.416 269.37 255.34 267.93 254.52 266.77 253.34 266.77 252.76 266.77 251.08 264.58 249.14 263.91 250.24 263.52 250.87 263.15 250.8 262.65 250.03 262.15 249.26 261.78 249.14 261.1 250.15 260.42 251.16 260.2 251.15 259.49 249.97 258.248 248.544 256.761 247.352 255.1 246.45 253.1 245.29 251.49 243.91 251.49 243.39 251.99 241.99 252.761 240.702 253.76 239.6 254.859 238.296 255.799 236.866 256.56 235.34 256.91 234.34 256.93 232.71 256.35 232.34 255.436 231.792 255.139 230.606 255.687 229.692 255.71 229.654 255.734 229.617 255.76 229.58 256.579 228.783 257.746 228.456 258.86 228.71 260.86 229.09 262.67 227.12 262.71 224.56 262.874 223.351 263.454 222.238 264.35 221.41 265.61 220.27 265.77 219.71 265.04 218.83 264.383 218.218 263.47 217.961 262.59 218.14 261.98 218.37 261.82 217.26 261.59 216.39 261.4 215.72 259.29 217.26 259.23 217.12 258.407 217.134 257.599 217.34 256.87 217.72 254.26 218.72 252.03 216.8 251.87 216.9 248.39 218.76 248.14 218.8 247.39 217.45 246.81 216.45 246 216.15 244.55 216.51 242.55 217.01 237.89 215.51 237.89 214.35 237.89 214.03 236.75 213.98 235.36 214.26 233.344 214.444 231.366 213.625 230.07 212.07 229.3 210.95 229.37 210.51 228.34 210.84 227.1 211.23 225.83 210.98 225.83 209.31 225.83 208.16 225.53 207.68 224.22 208.01 223.469 208.424 222.628 208.651 221.77 208.67 218.4 208.58 217.77 209.73 219.95 211.86 220.95 212.86 223.95 212.14 224.95 214.05 225.95 215.96 225.49 218.15 224.11 217.3 223.68 217.03 222.75 217.3 222.05 217.87 220.24 219.38 215.52 219.76 214.29 218.87 213.06 217.98 210.15 218.51 207.51 221.12 206.78 221.85 204.08 225.02 203.1 226.02 201.46 227.67 204 228.62 203.24 229.53 202.74 230.148 202.026 230.555 201.24 230.67 200.64 230.67 199.9 231.67 199.6 232.9 199.279 234.167 198.582 235.307 197.6 236.17 195.77 237.48 195.72 239.26 197.45 241.01 198.68 242.24 198.61 242.43 196.53 243.29 195.365 243.711 194.112 243.824 192.89 243.62L192.89 353.14 275.46 353.14 275.46 259.72Z" class="MsftOfcThm_Accent3_Stroke_v2" stroke="#44883E" fill="none" transform="translate(-45.71 -202.73)"/><path d="M262 232.56C261.14 232.63 260.61 232.99 260.83 233.35 261.05 233.71 261.57 234.04 261.1 234.04 259.66 234.51 259.61 234.89 259.88 236.14 259.83 237.43 260.43 238 262.23 238.36 263.56 238.63 265.01 238.45 265.46 238 265.91 237.55 265.81 237.19 264.89 237.19 263.39 237.19 263.08 235.97 264.35 235.19 264.805 234.895 265.103 234.41 265.16 233.87 265.16 233.42 264.8 233.29 264.35 233.57 263.9 233.85 263.55 233.71 263.55 233.27 263.55 232.83 262.85 232.5 262 232.56ZM275.37 259.72C275.025 259.508 274.691 259.278 274.37 259.03 272.821 257.645 271.147 256.406 269.37 255.33 267.93 254.51 266.77 253.33 266.77 252.75 266.77 251.07 264.58 249.13 263.91 250.23 263.52 250.86 263.15 250.79 262.65 250.02 262.15 249.25 261.78 249.13 261.1 250.14 260.42 251.15 260.2 251.14 259.49 249.96 258.248 248.534 256.761 247.342 255.1 246.44 253.1 245.28 251.49 243.9 251.49 243.38 251.99 241.98 252.761 240.692 253.76 239.59 254.859 238.286 255.799 236.856 256.56 235.33 256.91 234.33 256.93 232.7 256.35 232.33 255.436 231.782 255.139 230.596 255.687 229.682 255.71 229.644 255.734 229.607 255.76 229.57 256.579 228.773 257.746 228.446 258.86 228.7 260.86 229.08 262.67 227.11 262.71 224.55 262.874 223.341 263.454 222.228 264.35 221.4 265.61 220.26 265.77 219.7 265.04 218.82 264.383 218.208 263.47 217.951 262.59 218.13 261.98 218.36 261.82 217.25 261.59 216.38 261.4 215.71 259.29 217.25 259.23 217.11 258.407 217.124 257.599 217.33 256.87 217.71 254.26 218.71 252.03 216.79 251.87 216.89 248.39 218.75 248.14 218.79 247.39 217.44 246.81 216.44 246 216.14 244.55 216.5 242.55 217 237.89 215.5 237.89 214.34 237.89 214.02 236.75 213.97 235.36 214.25 233.344 214.434 231.366 213.615 230.07 212.06 229.3 210.94 229.37 210.5 228.34 210.83 227.1 211.22 225.83 210.97 225.83 209.3 225.83 208.15 225.53 207.67 224.22 208 223.469 208.414 222.628 208.641 221.77 208.66 218.4 208.57 217.77 209.72 219.95 211.85 220.95 212.85 223.95 212.13 224.95 214.04 225.95 215.95 225.49 218.14 224.11 217.29 223.68 217.02 222.75 217.29 222.05 217.86 220.24 219.37 215.52 219.75 214.29 218.86 213.06 217.97 210.15 218.5 207.51 221.11 206.78 221.84 204.08 225.01 203.1 226.01 201.46 227.66 204 228.61 203.24 229.52 202.74 230.138 202.026 230.545 201.24 230.66 200.64 230.66 199.9 231.66 199.6 232.89 199.279 234.157 198.582 235.297 197.6 236.16 195.77 237.47 195.72 239.25 197.45 241 198.68 242.23 198.61 242.42 196.53 243.28 195.365 243.701 194.112 243.814 192.89 243.61L192.89 353.14 275.46 353.14 275.46 259.72Z" class="MsftOfcThm_Accent3_Stroke_v2" stroke="#44883E" stroke-width="1.23" stroke-linejoin="round" fill="none" transform="translate(-45.71 -202.73)"/><path d="M275.24 259.68 275.24 259.91 275.41 259.74C275.356 259.714 275.299 259.694 275.24 259.68" class="MsftOfcThm_Accent3_Stroke_v2" stroke="#44883E" fill="none" transform="translate(-45.71 -202.73)"/><path d="M275.24 259.68 275.24 259.91 275.41 259.74C275.356 259.714 275.299 259.694 275.24 259.68Z" class="MsftOfcThm_Accent3_Stroke_v2" stroke="#44883E" stroke-width="1.23" stroke-linejoin="round" fill="none" transform="translate(-45.71 -202.73)"/><path d="M313.45 203.34C312.86 203.34 313.74 205.01 313.01 205.95 312.641 207.282 312.37 208.639 312.2 210.01 311.668 212.465 310.814 214.839 309.66 217.07 307.52 221.19 307.66 220.19 308.66 221.42 309.18 222.05 308.48 222.95 308.48 223.61 308.48 224.27 308.84 224.39 308.39 224.61 307.94 224.83 307.64 226.09 307.7 227.29 307.706 228.816 307.435 230.331 306.9 231.76 306.413 232.738 306.275 233.853 306.51 234.92 307.3 236.2 307.51 247.05 306.78 248.46 306.241 250.055 305.905 251.711 305.78 253.39 305.33 257.46 303.47 262.54 302.11 263.39 301.515 263.911 301.185 264.67 301.21 265.46 301.21 267.46 298.47 270.03 295.84 270.54 293.21 271.05 286.37 267.4 285.25 264.92 284.98 264.32 284.55 264.43 284.14 263.75 283.9 263.75 283.26 262.75 282.95 262.64 281.704 262.21 280.427 261.876 279.13 261.64 277.739 261.227 276.442 260.548 275.31 259.64L275.31 259.73 275.31 353.02 302.82 353.02 302.82 384.07 375.92 384.07 376.16 383.83 376.4 383.74 376.61 383.59 376.76 383.41 376.85 383.2 376.94 382.69 377.03 382.48 377.21 382.39 377.41 382.39 377.62 382.33 377.83 382.21 377.98 382.06 378 382 378 381.88 378.06 381.79 378.27 381.7 378.39 381.61 378.48 381.52 378.48 381.43 378.57 381.43 379.57 380.95 379.75 380.95 379.93 380.86 380.08 380.65 380.41 379.96 380.56 379.84 381.39 379.72 381.57 379.66 381.69 379.78 381.75 379.96 381.75 380.08 381.93 380.14 382.26 380.14 382.41 380.2 382.53 380.32 382.76 380.17 382.88 380.17 383.03 380.17 384.03 380.17 384.39 380.23 384.77 380.14 384.95 380.14 385.25 380.14 385.4 380.14 385.76 379.96 386.18 379.87 386.68 379.66 386.8 379.66 387.4 379.66 387.58 379.66 387.76 379.57 387.97 379.48 388.17 379.57 388.53 379.87 389.04 380.44 389.34 380.65 389.73 380.74 390.92 380.74 391.31 380.74 392.11 380.53 392.5 380.53 392.89 380.65 393.22 380.89 393.4 380.98 393.78 381.07 393.93 381.19 394.05 381.34 394.2 381.46 394.38 381.46 394.62 381.46 394.8 381.55 394.89 381.73 394.89 382.33 394.95 382.51 395.1 382.6 395.31 382.66 395.66 382.66 395.87 382.66 396.05 382.78 396.41 383.05 397.04 383.47 397.16 384.13 397.22 384.28 397.16 384.4 397.16 384.49 397.22 384.55 397.22 384.94 397.27 385.33 397.27 385.39 397.45 385.48 397.51 385.57 397.51 385.9 397.57 386.02 397.81 386.08 397.87 386.08 398.08 385.99 398.23 385.93 398.23 385.87 398.23 385.81 398.29 385.75 398.47 385.63 398.56 385.57 398.62 385.45 398.77 385.21 399 385 399.17 384.88 399.23 384.82 399.23 384.46 399.29 384.25 399.5 383.86 399.56 383.71 399.56 383.71 399.62 383.71 399.68 383.71 399.77 383.71 399.83 383.71 399.89 383.71 400.04 383.59 400.1 383.59 400.28 383.59 400.34 383.59 400.43 383.59 400.55 383.53 400.88 383.29 401 383 401.12 383 401.45 383.63 401.45 383.63 401.45 383.63 401.51 383.63 401.57 383.63 401.69 383.63 401.75 383.63 401.75 383.63 401.84 383.69 401.84 383.69 401.9 383.69 401.9 383.69 401.96 383.63 402.02 383.36 402.08 383.21 402.08 383.15 402.14 383.15 402.2 383.15 402.32 383.15 402.5 383.21 402.7 383.27 403 383.27 403.3 383.12 403.39 383.12 403.45 383.12 403.66 383.12 403.66 383.12 403.72 383.12 403.72 383.06 403.72 383 403.72 382.94 403.72 382.88 403.72 382.55 403.81 382.28 403.87 382.19 403.87 381.77 403.87 381.53 403.87 381.41 403.87 381.35 403.87 381.35 403.96 381.2 403.96 381.2 403.96 381.14 403.96 381.05 403.96 380.96 403.69 380.66 403.48 380.45 403.48 380.39 403.42 380.3 403.42 380.21 403.42 380.03 403.36 379.91 403.12 379.64 403.12 379.52 403.12 379.46 403.12 379.46 403.12 379.4 403.12 379.4 403.21 379.4 403.3 379.4 403.39 379.4 403.48 379.34 404 379 404 379 404.09 378.88 405.09 378.34 405.18 378.34 405.3 378.34 405.6 378.34 405.66 378.34 405.72 378.34 405.78 378.34 405.87 378.25 406.05 378.07 406.26 377.86 406.35 377.86 406.46 377.86 406.85 377.86 407.15 377.74 407.3 377.65 407.3 377.59 407.3 377.59 407.3 377.59 407.42 377.19 407.48 377.19 407.6 377.1 407.9 376.83 407.96 376.77 408.02 376.77 408.08 376.77 408.19 376.77 408.34 376.92 408.4 377.01 408.4 377.1 408.4 377 408.4 377 408.4 377.06 408.4 377.06 408.4 377.06 408.52 377.13 408.61 377.13 408.7 377.13 408.79 377.07 408.85 377.01 408.85 376.86 408.85 376.86 408.85 376.8 408.85 376.8 408.97 376.8 409.18 377.04 409.27 377.1 410.13 377.47 410.22 377.47 410.28 377.47 410.43 377.41 411 377.41 411.24 377.32 411.3 377.26 411.39 377.13 411.45 377.13 411.51 377.13 411.63 377.13 411.81 377.13 412.01 377.13 412.25 377.26 412.34 377.26 412.85 377.26 413.54 377.26 413.6 377.26 413.69 377.32 413.84 377.32 413.92 377.32 414.04 377.2 414.25 376.86 414.34 376.86 414.34 376.86 414.34 376.8 414.4 376.71 414.4 376.59 414.52 376.41 414.76 376.41 414.88 376.41 415.62 376.2 415.74 376.2 416.01 376.29 416.28 376.17 417.03 375.57C416.92 375.38 416.86 375.03 416.73 374.94 416.2 374.61 416.09 373.26 416.28 371.58 416.47 369.9 417.37 368.45 416.76 367.31 416.5 366.84 414.64 369.31 413.76 367.31 413.3 366.2 413.25 365.18 413.65 365.03 414.013 364.896 414.198 364.494 414.065 364.131 414.048 364.085 414.026 364.041 414 364 413.15 362.61 412.1 354.14 412.63 349.31 412.78 347.98 413.88 347.08 414.12 346.49 414.609 345.26 414.844 343.943 414.81 342.62 414.81 341.08 414.32 339.88 413.56 339.88 413.15 339.88 412.72 340.76 412.99 341.88 413.35 343.33 413.39 344.05 412.18 344.7 409.72 346.03 408.89 345.77 407.83 343.35 407.019 341.736 405.952 340.263 404.67 338.99 403.44 337.81 402.43 336.32 402.43 335.66 402.43 334.37 400.31 333.09 397.59 332.75 397.15 332.69 396.85 332.39 396.94 332.05 397.22 330.98 395.94 327.8 395.15 327.7 394.73 327.64 393.94 327.54 393.39 327.49 392.84 327.44 392.24 325.59 391.98 322.49 391.72 319.39 392.38 318.3 391.48 317.39 390.58 316.48 388.76 316.01 388.76 316.61 388.76 318.37 388.34 318.56 386.4 315.83 384.71 313.44 383.63 313.83 383.48 315.26 383.36 316.4 383.67 317.26 383.27 317.26 381.98 317.26 380.69 315.05 380.2 312.03 379.57 308.11 375.63 304.98 374.59 301.34 374.19 299.93 373.9 300.13 373.84 298.7 373.78 297.27 375.07 297.92 372.84 295.42 371.46 293.9 370.01 294.57 368.84 293.53 368.183 292.874 367.355 292.417 366.45 292.21 365.932 292.244 365.485 291.851 365.451 291.333 365.451 291.325 365.45 291.318 365.45 291.31 365.45 290.82 364.95 290.59 364.35 290.83 363.75 291.07 362.87 290.48 362.35 289.33 361.946 288.276 361.014 287.514 359.9 287.33 359.119 287.377 358.356 287.081 357.81 286.52 357.53 286.07 355.35 284.34 354.59 284.63 352.38 285.49 350.98 283.33 350.98 279.08 350.98 275.78 350.77 278.02 349.76 275.53 349.34 274.53 348.59 275.53 348.98 273.4 349.194 271.346 348.938 269.27 348.23 267.33 347.57 265.44 347.23 263.91 347.43 263.91 347.63 263.91 346.92 263.08 345.76 262.08 344.15 260.68 343.37 258.9 342.53 254.51 342 251.94 341.722 249.324 341.7 246.7 341.87 245.11 341.19 244.11 338.8 242.34 337.1 241.09 335.49 239.21 335.22 238.2 334.84 236.74 333.93 236.14 333.05 236.88 332.17 237.62 332 236.88 331.52 237.88 330.07 240.88 327.89 240.15 326.78 236.26 326.329 234.928 326.05 233.543 325.95 232.14 326.44 230.14 324.25 222.14 322.75 220.55 321.25 218.96 322.11 218.83 322.1 217.43 321.956 216.821 321.713 216.24 321.38 215.71 320.92 214.83 319.6 214.64 319.53 213.91 319.46 213.18 319.33 212.25 319.23 211.81 319.088 210.976 318.998 210.135 318.96 209.29 318.82 206.62 315.23 203.4 313.44 203.4" class="MsftOfcThm_Accent3_Stroke_v2" stroke="#44883E" fill="none" transform="translate(-45.71 -202.73)"/><path d="M313.45 203.34C312.86 203.34 313.74 205.01 313.01 205.95 312.641 207.282 312.37 208.639 312.2 210.01 311.668 212.465 310.814 214.839 309.66 217.07 307.52 221.19 307.66 220.19 308.66 221.42 309.18 222.05 308.48 222.95 308.48 223.61 308.48 224.27 308.84 224.39 308.39 224.61 307.94 224.83 307.64 226.09 307.7 227.29 307.706 228.816 307.435 230.331 306.9 231.76 306.413 232.738 306.275 233.853 306.51 234.92 307.3 236.2 307.51 247.05 306.78 248.46 306.241 250.055 305.905 251.711 305.78 253.39 305.33 257.46 303.47 262.54 302.11 263.39 301.515 263.911 301.185 264.67 301.21 265.46 301.21 267.46 298.47 270.03 295.84 270.54 293.21 271.05 286.37 267.4 285.25 264.92 284.98 264.32 284.55 264.43 284.14 263.75 283.9 263.75 283.26 262.75 282.95 262.64 281.704 262.21 280.427 261.876 279.13 261.64 277.739 261.227 276.442 260.548 275.31 259.64L275.31 259.73 275.31 353.02 302.82 353.02 302.82 384.07 375.92 384.07 376.16 383.83 376.4 383.74 376.61 383.59 376.76 383.41 376.85 383.2 376.94 382.69 377.03 382.48 377.21 382.39 377.41 382.39 377.62 382.33 377.83 382.21 377.98 382.06 378 382 378 381.88 378.06 381.79 378.27 381.7 378.39 381.61 378.48 381.52 378.48 381.43 378.57 381.43 379.57 380.95 379.75 380.95 379.93 380.86 380.08 380.65 380.41 379.96 380.56 379.84 381.39 379.72 381.57 379.66 381.69 379.78 381.75 379.96 381.75 380.08 381.93 380.14 382.26 380.14 382.41 380.2 382.53 380.32 382.76 380.17 382.88 380.17 383.03 380.17 384.03 380.17 384.39 380.23 384.77 380.14 384.95 380.14 385.25 380.14 385.4 380.14 385.76 379.96 386.18 379.87 386.68 379.66 386.8 379.66 387.4 379.66 387.58 379.66 387.76 379.57 387.97 379.48 388.17 379.57 388.53 379.87 389.04 380.44 389.34 380.65 389.73 380.74 390.92 380.74 391.31 380.74 392.11 380.53 392.5 380.53 392.89 380.65 393.22 380.89 393.4 380.98 393.78 381.07 393.93 381.19 394.05 381.34 394.2 381.46 394.38 381.46 394.62 381.46 394.8 381.55 394.89 381.73 394.89 382.33 394.95 382.51 395.1 382.6 395.31 382.66 395.66 382.66 395.87 382.66 396.05 382.78 396.41 383.05 397.04 383.47 397.16 384.13 397.22 384.28 397.16 384.4 397.16 384.49 397.22 384.55 397.22 384.94 397.27 385.33 397.27 385.39 397.45 385.48 397.51 385.57 397.51 385.9 397.57 386.02 397.81 386.08 397.87 386.08 398.08 385.99 398.23 385.93 398.23 385.87 398.23 385.81 398.29 385.75 398.47 385.63 398.56 385.57 398.62 385.45 398.77 385.21 399 385 399.17 384.88 399.23 384.82 399.23 384.46 399.29 384.25 399.5 383.86 399.56 383.71 399.56 383.71 399.62 383.71 399.68 383.71 399.77 383.71 399.83 383.71 399.89 383.71 400.04 383.59 400.1 383.59 400.28 383.59 400.34 383.59 400.43 383.59 400.55 383.53 400.88 383.29 401 383 401.12 383 401.45 383.63 401.45 383.63 401.45 383.63 401.51 383.63 401.57 383.63 401.69 383.63 401.75 383.63 401.75 383.63 401.84 383.69 401.84 383.69 401.9 383.69 401.9 383.69 401.96 383.63 402.02 383.36 402.08 383.21 402.08 383.15 402.14 383.15 402.2 383.15 402.32 383.15 402.5 383.21 402.7 383.27 403 383.27 403.3 383.12 403.39 383.12 403.45 383.12 403.66 383.12 403.66 383.12 403.72 383.12 403.72 383.06 403.72 383 403.72 382.94 403.72 382.88 403.72 382.55 403.81 382.28 403.87 382.19 403.87 381.77 403.87 381.53 403.87 381.41 403.87 381.35 403.87 381.35 403.96 381.2 403.96 381.2 403.96 381.14 403.96 381.05 403.96 380.96 403.69 380.66 403.48 380.45 403.48 380.39 403.42 380.3 403.42 380.21 403.42 380.03 403.36 379.91 403.12 379.64 403.12 379.52 403.12 379.46 403.12 379.46 403.12 379.4 403.12 379.4 403.21 379.4 403.3 379.4 403.39 379.4 403.48 379.34 404 379 404 379 404.09 378.88 405.09 378.34 405.18 378.34 405.3 378.34 405.6 378.34 405.66 378.34 405.72 378.34 405.78 378.34 405.87 378.25 406.05 378.07 406.26 377.86 406.35 377.86 406.46 377.86 406.85 377.86 407.15 377.74 407.3 377.65 407.3 377.59 407.3 377.59 407.3 377.59 407.42 377.19 407.48 377.19 407.6 377.1 407.9 376.83 407.96 376.77 408.02 376.77 408.08 376.77 408.19 376.77 408.34 376.92 408.4 377.01 408.4 377.1 408.4 377 408.4 377 408.4 377.06 408.4 377.06 408.4 377.06 408.52 377.13 408.61 377.13 408.7 377.13 408.79 377.07 408.85 377.01 408.85 376.86 408.85 376.86 408.85 376.8 408.85 376.8 408.97 376.8 409.18 377.04 409.27 377.1 410.13 377.47 410.22 377.47 410.28 377.47 410.43 377.41 411 377.41 411.24 377.32 411.3 377.26 411.39 377.13 411.45 377.13 411.51 377.13 411.63 377.13 411.81 377.13 412.01 377.13 412.25 377.26 412.34 377.26 412.85 377.26 413.54 377.26 413.6 377.26 413.69 377.32 413.84 377.32 413.92 377.32 414.04 377.2 414.25 376.86 414.34 376.86 414.34 376.86 414.34 376.8 414.4 376.71 414.4 376.59 414.52 376.41 414.76 376.41 414.88 376.41 415.62 376.2 415.74 376.2 416.01 376.29 416.28 376.17 417.03 375.57C416.92 375.38 416.86 375.03 416.73 374.94 416.2 374.61 416.09 373.26 416.28 371.58 416.47 369.9 417.37 368.45 416.76 367.31 416.5 366.84 414.64 369.31 413.76 367.31 413.3 366.2 413.25 365.18 413.65 365.03 414.013 364.896 414.198 364.494 414.065 364.131 414.048 364.085 414.026 364.041 414 364 413.15 362.61 412.1 354.14 412.63 349.31 412.78 347.98 413.88 347.08 414.12 346.49 414.609 345.26 414.844 343.943 414.81 342.62 414.81 341.08 414.32 339.88 413.56 339.88 413.15 339.88 412.72 340.76 412.99 341.88 413.35 343.33 413.39 344.05 412.18 344.7 409.72 346.03 408.89 345.77 407.83 343.35 407.019 341.736 405.952 340.263 404.67 338.99 403.44 337.81 402.43 336.32 402.43 335.66 402.43 334.37 400.31 333.09 397.59 332.75 397.15 332.69 396.85 332.39 396.94 332.05 397.22 330.98 395.94 327.8 395.15 327.7 394.73 327.64 393.94 327.54 393.39 327.49 392.84 327.44 392.24 325.59 391.98 322.49 391.72 319.39 392.38 318.3 391.48 317.39 390.58 316.48 388.76 316.01 388.76 316.61 388.76 318.37 388.34 318.56 386.4 315.83 384.71 313.44 383.63 313.83 383.48 315.26 383.36 316.4 383.67 317.26 383.27 317.26 381.98 317.26 380.69 315.05 380.2 312.03 379.57 308.11 375.63 304.98 374.59 301.34 374.19 299.93 373.9 300.13 373.84 298.7 373.78 297.27 375.07 297.92 372.84 295.42 371.46 293.9 370.01 294.57 368.84 293.53 368.183 292.874 367.355 292.417 366.45 292.21 365.932 292.244 365.485 291.851 365.451 291.333 365.451 291.325 365.45 291.318 365.45 291.31 365.45 290.82 364.95 290.59 364.35 290.83 363.75 291.07 362.87 290.48 362.35 289.33 361.946 288.276 361.014 287.514 359.9 287.33 359.119 287.377 358.356 287.081 357.81 286.52 357.53 286.07 355.35 284.34 354.59 284.63 352.38 285.49 350.98 283.33 350.98 279.08 350.98 275.78 350.77 278.02 349.76 275.53 349.34 274.53 348.59 275.53 348.98 273.4 349.194 271.346 348.938 269.27 348.23 267.33 347.57 265.44 347.23 263.91 347.43 263.91 347.63 263.91 346.92 263.08 345.76 262.08 344.15 260.68 343.37 258.9 342.53 254.51 342 251.94 341.722 249.324 341.7 246.7 341.87 245.11 341.19 244.11 338.8 242.34 337.1 241.09 335.49 239.21 335.22 238.2 334.84 236.74 333.93 236.14 333.05 236.88 332.17 237.62 332 236.88 331.52 237.88 330.07 240.88 327.89 240.15 326.78 236.26 326.329 234.928 326.05 233.543 325.95 232.14 326.44 230.14 324.25 222.14 322.75 220.55 321.25 218.96 322.11 218.83 322.1 217.43 321.956 216.821 321.713 216.24 321.38 215.71 320.92 214.83 319.6 214.64 319.53 213.91 319.46 213.18 319.33 212.25 319.23 211.81 319.088 210.976 318.998 210.135 318.96 209.29 318.83 206.56 315.24 203.34 313.45 203.34Z" class="MsftOfcThm_Accent3_Stroke_v2" stroke="#44883E" stroke-width="1.23" stroke-linejoin="round" fill="none" transform="translate(-45.71 -202.73)"/></g><text fill="none" font-family="AcuminPro-Semibold,Acumin Pro" font-weight="600" font-size="7.38" transform="translate(75.35 142.15)"><tspan letter-spacing="-0.05em">W</tspan><tspan x="6.64" y="0">A</tspan></text><text fill="none" font-family="AcuminPro-Light,Acumin Pro" font-weight="300" font-size="6.35" transform="translate(109.23 152.1)"></text><text fill="none" font-family="AcuminPro-Semibold,Acumin Pro" font-weight="600" font-size="7.38" transform="translate(183.74 78.64)"><tspan letter-spacing="0.02em">N</tspan><tspan x="5.68" y="0">T</tspan></text><text fill="none" font-family="AcuminPro-Light,Acumin Pro" font-weight="300" font-size="6.35" transform="translate(216.77 88.59)"></text><text fill="none" font-family="AcuminPro-Semibold,Acumin Pro" font-weight="600" font-size="7.38" letter-spacing="0.01em" transform="translate(292.36 115.85)">Q<tspan x="5.7" y="0">L</tspan><tspan letter-spacing="0em" x="10" y="0">D</tspan></text><text fill="none" font-family="AcuminPro-Light,Acumin Pro" font-weight="300" font-size="6.35" transform="translate(328.11 125.8)"></text><text fill="none" font-family="AcuminPro-Semibold,Acumin Pro" font-weight="600" font-size="7.38" letter-spacing="0.02em" transform="translate(196.87 159.91)">S<tspan letter-spacing="0em" x="4.74" y="0">A</tspan></text><text fill="none" font-family="AcuminPro-Regular,Acumin Pro" font-size="7.38" transform="translate(206.61 159.91)"></text><text fill="none" font-family="AcuminPro-Light,Acumin Pro" font-weight="300" font-size="6.35" transform="translate(229.8 169.86)"></text><text fill="none" font-family="AcuminPro-Semibold,Acumin Pro" font-weight="600" font-size="7.38" transform="translate(300.04 204.53)"><tspan letter-spacing="0.01em">N</tspan><tspan letter-spacing="0em" x="5.58" y="0">S</tspan><tspan x="10.19" y="0">W</tspan></text><text fill="none" font-family="AcuminPro-Light,Acumin Pro" font-weight="300" font-size="6.35" transform="translate(336.68 214.48)"></text><text fill="none" font-family="AcuminPro-Light,Acumin Pro" font-weight="300" font-size="6.35" transform="translate(259.96 327.36)"></text><g clip-path="url(#clip-path)"><path d="M317.87 468.54C318.853 468.54 319.65 467.743 319.65 466.76 319.65 465.777 318.853 464.98 317.87 464.98 316.887 464.98 316.09 465.777 316.09 466.76 316.09 466.763 316.09 466.767 316.09 466.77 316.09 467.748 316.882 468.54 317.86 468.54 317.863 468.54 317.867 468.54 317.87 468.54" class="MsftOfcThm_Accent3_Stroke_v2" stroke="#44883E" fill="none" transform="translate(-45.71 -202.73)"/></g></svg>