<svg viewBox="0 0 290.5 66" xmlns="http://www.w3.org/2000/svg" xmlns:xlink="http://www.w3.org/1999/xlink" id="Raw" xml:space="preserve" overflow="hidden"><path d="M85.8 31.5 85.8 22.6 82.3 22.6 82.3 20.6 91.7 20.6 91.7 22.6 88.2 22.6 88.2 31.5 85.8 31.5ZM94.1 31.7C93.8 31.7 93.5 31.7 93.2 31.6L92.3 31.3C92 31.1 91.8 30.9 91.6 30.6 91.4 30.3 91.3 29.9 91.3 29.4 91.3 28.8 91.4 28.3 91.7 28 92 27.7 92.3 27.3 92.8 27.1 93.3 26.9 93.8 26.7 94.5 26.6 95.2 26.5 95.9 26.5 96.7 26.5L96.7 25.9C96.7 25.7 96.7 25.4 96.6 25.3 96.5 25.1 96.4 25 96.2 24.9 96 24.8 95.7 24.7 95.4 24.7 95.1 24.7 94.8 24.7 94.6 24.8 94.4 24.9 94.2 25 94.1 25.1 94 25.2 94 25.4 94 25.5L94 25.7 91.9 25.7 91.9 25.3C91.9 24.8 92 24.4 92.3 24 92.6 23.6 93 23.4 93.6 23.2 94.2 23 94.8 22.9 95.5 22.9 96.3 22.9 96.9 23 97.4 23.2 97.9 23.4 98.3 23.7 98.6 24.1 98.9 24.5 99 25 99 25.6L99 29.4C99 29.6 99.1 29.7 99.2 29.8 99.3 29.9 99.4 29.9 99.6 29.9L100.1 29.9 100.1 31.3C100 31.4 99.8 31.4 99.6 31.5 99.4 31.6 99.1 31.6 98.8 31.6 98.5 31.6 98.2 31.6 98 31.5 97.8 31.4 97.6 31.3 97.4 31.1 97.2 30.9 97.1 30.7 97.1 30.5L97 30.5C96.8 30.7 96.6 30.9 96.3 31.1 96 31.3 95.7 31.4 95.4 31.5 94.9 31.6 94.5 31.7 94.1 31.7ZM94.8 30C95.1 30 95.4 30 95.6 29.9 95.8 29.8 96 29.7 96.2 29.5 96.4 29.3 96.5 29.2 96.6 28.9 96.7 28.7 96.7 28.4 96.7 28.2L96.7 27.7C96.1 27.7 95.6 27.7 95.1 27.8 94.6 27.9 94.3 28 94 28.2 93.7 28.4 93.6 28.7 93.6 29 93.6 29.2 93.6 29.4 93.7 29.5 93.8 29.6 93.9 29.7 94.1 29.8 94.4 30 94.6 30 94.8 30ZM104.4 31.7C103.8 31.7 103.3 31.6 102.8 31.5 102.3 31.4 101.9 31.2 101.6 31 101.3 30.8 101 30.5 100.8 30.2 100.6 29.9 100.5 29.5 100.5 29.1L100.5 28.9 102.6 28.9 102.6 29.1C102.6 29.4 102.7 29.6 102.9 29.7 103.1 29.8 103.3 30 103.5 30.1 103.8 30.2 104 30.2 104.3 30.2 104.6 30.2 104.8 30.2 105 30.1 105.2 30.1 105.4 30 105.6 29.8 105.8 29.7 105.8 29.5 105.8 29.3 105.8 29 105.7 28.9 105.5 28.7 105.3 28.6 105 28.5 104.7 28.4 104.4 28.3 104 28.2 103.6 28.1 103.2 28 102.9 27.9 102.5 27.8 102.1 27.7 101.8 27.5 101.5 27.4 101.2 27.2 101 27 100.8 26.7 100.6 26.4 100.5 26 100.5 25.6 100.5 25.2 100.6 24.8 100.8 24.5 101 24.2 101.3 23.9 101.6 23.7 101.9 23.5 102.3 23.3 102.8 23.2 103.2 23.1 103.7 23 104.2 23 104.7 23 105.1 23.1 105.6 23.2 106 23.3 106.4 23.4 106.7 23.6 107 23.8 107.3 24 107.4 24.3 107.6 24.6 107.7 24.9 107.7 25.3L107.7 25.6 105.6 25.6 105.6 25.5C105.6 25.3 105.5 25.1 105.4 25 105.3 24.9 105.1 24.8 104.9 24.7 104.7 24.6 104.4 24.6 104.1 24.6L103.5 24.6C103.3 24.6 103.2 24.7 103 24.7 102.9 24.8 102.8 24.8 102.7 24.9 102.6 25 102.6 25.1 102.6 25.2 102.6 25.4 102.7 25.5 102.8 25.6 102.9 25.7 103.2 25.8 103.4 25.9 103.7 26 103.9 26.1 104.2 26.1L105.4 26.4C105.8 26.5 106.2 26.6 106.6 26.8 107 27 107.2 27.2 107.5 27.5 107.7 27.8 107.8 28.2 107.8 28.8 107.8 29.3 107.7 29.7 107.5 30.1 107.3 30.4 107 30.7 106.7 30.9 106.4 31.1 105.9 31.3 105.5 31.4 105.5 31.6 105 31.7 104.4 31.7ZM109.9 31.5 109.9 20 112.1 20 112.1 26.6 115 23.1 117.6 23.1 114.8 26.4 117.8 31.5 115.3 31.5 113.4 28 112.2 29.2 112.2 31.5 109.9 31.5ZM119.3 31.5 119.3 24.9 118.1 24.9 118.1 23.2 119.3 23.2 119.3 22.3C119.3 21.8 119.4 21.4 119.5 21.1 119.7 20.7 119.9 20.5 120.2 20.3 120.5 20.1 121 20 121.5 20L122 20C122.2 20 122.3 20.1 122.5 20.1 122.7 20.1 122.8 20.2 122.9 20.2L122.9 21.7 122.1 21.7C121.8 21.7 121.7 21.8 121.5 21.9 121.4 22 121.3 22.2 121.3 22.5L121.3 23.3 122.8 23.3 122.8 25 121.3 25 121.3 31.6 119.3 31.6ZM127.8 31.7C126.9 31.7 126.1 31.5 125.5 31.2 124.9 30.9 124.4 30.4 124.1 29.8 123.8 29.2 123.6 28.3 123.6 27.4 123.6 26.4 123.8 25.6 124.1 24.9 124.4 24.2 124.9 23.8 125.5 23.5 126.1 23.2 126.9 23 127.8 23 128.7 23 129.5 23.2 130.1 23.5 130.7 23.8 131.2 24.3 131.5 24.9 131.8 25.5 132 26.4 132 27.4 132 28.4 131.8 29.2 131.5 29.8 131.2 30.4 130.7 30.9 130.1 31.2 129.5 31.5 128.7 31.7 127.8 31.7ZM127.8 30C128.3 30 128.7 29.9 129 29.7 129.3 29.5 129.5 29.2 129.6 28.9 129.7 28.5 129.8 28.1 129.8 27.5L129.8 27.1C129.8 26.6 129.7 26.1 129.6 25.7 129.5 25.3 129.2 25.1 129 24.9 128.7 24.7 128.3 24.6 127.8 24.6 127.3 24.6 126.9 24.7 126.7 24.9 126.4 25.1 126.2 25.4 126.1 25.7 126 26 125.9 26.5 125.9 27.1L125.9 27.5C125.9 28 126 28.5 126.1 28.9 126.2 29.3 126.5 29.5 126.7 29.7 126.9 29.9 127.3 30 127.8 30ZM133.7 31.5 133.7 23.2 135.5 23.2 135.7 24.5 135.8 24.5C135.9 24.2 136 24 136.2 23.7 136.4 23.4 136.6 23.3 136.8 23.2 137.1 23.1 137.3 23 137.7 23 137.9 23 138 23 138.2 23.1 138.3 23.1 138.5 23.2 138.5 23.2L138.5 25.2 137.8 25.2C137.5 25.2 137.2 25.2 136.9 25.3 136.6 25.4 136.4 25.5 136.3 25.7 136.1 25.9 136 26.1 135.9 26.4 135.8 26.7 135.8 27 135.8 27.4L135.8 31.6 133.7 31.6ZM143.2 31.7C142.3 31.7 141.6 31.5 141 31.2 140.4 30.9 139.9 30.4 139.6 29.8 139.3 29.2 139.1 28.3 139.1 27.4 139.1 26.4 139.3 25.6 139.6 24.9 139.9 24.3 140.4 23.8 141 23.5 141.6 23.2 142.3 23 143.2 23 143.8 23 144.3 23.1 144.7 23.2 145.2 23.3 145.6 23.5 145.9 23.8 146.2 24.1 146.5 24.4 146.7 24.9 146.9 25.3 147 25.8 147 26.4L144.8 26.4C144.8 26 144.7 25.7 144.6 25.5 144.5 25.3 144.3 25.1 144.1 24.9 143.9 24.8 143.6 24.7 143.2 24.7 142.8 24.7 142.4 24.8 142.2 25 142 25.2 141.7 25.5 141.6 25.8 141.5 26.2 141.4 26.6 141.4 27.2L141.4 27.6C141.4 28.1 141.5 28.6 141.6 29 141.7 29.4 141.9 29.6 142.2 29.8 142.5 30 142.8 30.1 143.3 30.1 143.7 30.1 144 30 144.2 29.9 144.4 29.8 144.6 29.6 144.7 29.3 144.8 29 144.9 28.7 144.9 28.4L147 28.4C147 28.9 146.9 29.4 146.7 29.8 146.5 30.2 146.3 30.6 145.9 30.9 145.6 31.2 145.2 31.4 144.7 31.5 144.3 31.6 143.8 31.7 143.2 31.7ZM152.4 31.7C151.5 31.7 150.7 31.5 150.1 31.2 149.5 30.9 149 30.4 148.7 29.8 148.4 29.2 148.2 28.3 148.2 27.3 148.2 26.3 148.4 25.5 148.7 24.8 149 24.2 149.5 23.7 150.1 23.4 150.7 23.1 151.5 22.9 152.4 22.9 153.2 22.9 154 23.1 154.5 23.4 155 23.7 155.5 24.2 155.8 24.8 156.1 25.4 156.2 26.2 156.2 27.2L156.2 27.8 150.4 27.8C150.4 28.3 150.5 28.7 150.6 29 150.7 29.3 150.9 29.6 151.2 29.8 151.5 30 151.9 30 152.3 30 152.6 30 152.8 30 153 29.9 153.2 29.8 153.4 29.7 153.5 29.6 153.6 29.5 153.8 29.3 153.8 29.1 153.9 28.9 153.9 28.7 153.9 28.5L156.1 28.5C156.1 29 156 29.5 155.8 29.9 155.6 30.3 155.3 30.6 155 30.9 154.7 31.2 154.3 31.4 153.8 31.5 153.3 31.6 153 31.7 152.4 31.7ZM150.5 26.4 154 26.4C154 26.1 154 25.8 153.9 25.6L153.6 25C153.5 24.9 153.3 24.7 153.1 24.7 152.9 24.6 152.7 24.6 152.4 24.6 152 24.6 151.7 24.7 151.4 24.8 151.1 24.9 150.9 25.1 150.8 25.4 150.7 25.7 150.5 26 150.5 26.4ZM164.8 31.7C163.9 31.7 163.1 31.5 162.5 31.2 161.9 30.9 161.4 30.4 161.1 29.8 160.8 29.2 160.6 28.3 160.6 27.4 160.6 26.4 160.8 25.6 161.1 24.9 161.4 24.2 161.9 23.8 162.5 23.5 163.1 23.2 163.9 23 164.8 23 165.7 23 166.5 23.2 167.1 23.5 167.7 23.8 168.2 24.3 168.5 24.9 168.8 25.5 169 26.4 169 27.4 169 28.4 168.8 29.2 168.5 29.8 168.2 30.4 167.7 30.9 167.1 31.2 166.5 31.5 165.7 31.7 164.8 31.7ZM164.8 30C165.3 30 165.7 29.9 166 29.7 166.3 29.5 166.5 29.2 166.6 28.9 166.7 28.5 166.8 28.1 166.8 27.5L166.8 27.1C166.8 26.6 166.7 26.1 166.6 25.7 166.5 25.3 166.2 25.1 166 24.9 165.7 24.7 165.3 24.6 164.8 24.6 164.3 24.6 163.9 24.7 163.7 24.9 163.4 25.1 163.2 25.4 163.1 25.7 163 26 162.9 26.5 162.9 27.1L162.9 27.5C162.9 28 163 28.5 163.1 28.9 163.2 29.3 163.5 29.5 163.7 29.7 163.9 29.9 164.3 30 164.8 30ZM170.7 31.5 170.7 23.2 172.5 23.2 172.7 24.3 172.8 24.3C173 24 173.2 23.8 173.5 23.6 173.8 23.4 174.1 23.2 174.4 23.1 174.7 23 175.1 22.9 175.5 22.9 176 22.9 176.5 23 176.9 23.2 177.3 23.4 177.6 23.7 177.9 24.1 178.1 24.5 178.2 25.1 178.2 25.8L178.2 31.4 176 31.4 176 26.2C176 25.9 176 25.7 175.9 25.5 175.8 25.3 175.7 25.2 175.6 25 175.5 24.9 175.3 24.8 175.1 24.7 174.9 24.6 174.7 24.6 174.5 24.6 174.2 24.6 173.9 24.7 173.6 24.8 173.3 25 173.1 25.2 173 25.4 172.9 25.7 172.8 26 172.8 26.4L172.8 31.3 170.7 31.3ZM183.5 31.5 183.5 20.6 185.7 20.6 190.1 26.5C190.2 26.6 190.2 26.7 190.3 26.8 190.4 26.9 190.5 27.1 190.6 27.2 190.7 27.3 190.7 27.4 190.8 27.5L190.9 27.5 190.9 20.6 193.1 20.6 193.1 31.5 190.9 31.5 186.4 25.5C186.3 25.4 186.2 25.2 186.1 25 186 24.8 185.9 24.7 185.8 24.6L185.7 24.6 185.7 31.5 183.5 31.5ZM197.4 31.7C197.1 31.7 196.8 31.7 196.5 31.6L195.6 31.3C195.3 31.1 195.1 30.9 194.9 30.6 194.7 30.3 194.6 29.9 194.6 29.4 194.6 28.8 194.7 28.3 195 28 195.3 27.7 195.6 27.3 196.1 27.1 196.6 26.9 197.1 26.7 197.8 26.6 198.5 26.5 199.2 26.5 200 26.5L200 25.9C200 25.7 200 25.4 199.9 25.3 199.8 25.1 199.7 25 199.5 24.9 199.3 24.8 199 24.7 198.7 24.7 198.4 24.7 198.1 24.7 197.9 24.8 197.7 24.9 197.5 25 197.4 25.1 197.3 25.2 197.3 25.4 197.3 25.5L197.3 25.7 195.2 25.7 195.2 25.3C195.2 24.8 195.3 24.4 195.6 24 195.9 23.6 196.3 23.4 196.9 23.2 197.5 23 198.1 22.9 198.8 22.9 199.6 22.9 200.2 23 200.7 23.2 201.2 23.4 201.6 23.7 201.9 24.1 202.2 24.5 202.3 25 202.3 25.6L202.3 29.4C202.3 29.6 202.4 29.7 202.5 29.8 202.6 29.9 202.7 29.9 202.9 29.9L203.4 29.9 203.4 31.3C203.3 31.4 203.1 31.4 202.9 31.5 202.7 31.6 202.4 31.6 202.1 31.6 201.8 31.6 201.5 31.6 201.3 31.5 201.1 31.4 200.9 31.3 200.7 31.1 200.5 30.9 200.4 30.7 200.4 30.5L200.3 30.5C200.1 30.7 199.9 30.9 199.6 31.1 199.3 31.3 199 31.4 198.7 31.5 198.3 31.6 197.9 31.7 197.4 31.7ZM198.2 30C198.5 30 198.8 30 199 29.9 199.2 29.8 199.4 29.7 199.6 29.5 199.8 29.3 199.9 29.2 200 28.9 200.1 28.7 200.1 28.4 200.1 28.2L200.1 27.7C199.5 27.7 199 27.7 198.5 27.8 198 27.9 197.7 28 197.4 28.2 197.1 28.4 197 28.7 197 29 197 29.2 197 29.4 197.1 29.5 197.2 29.6 197.3 29.7 197.5 29.8 197.7 30 197.9 30 198.2 30ZM206.9 31.7C206.4 31.7 205.9 31.6 205.6 31.4 205.3 31.2 205 31 204.9 30.6 204.8 30.3 204.7 29.9 204.7 29.5L204.7 24.8 203.7 24.8 203.7 23.1 204.8 23.1 205.2 20.7 206.9 20.7 206.9 23.1 208.4 23.1 208.4 24.8 206.9 24.8 206.9 29.1C206.9 29.4 207 29.5 207.1 29.7 207.2 29.8 207.4 29.9 207.7 29.9L208.5 29.9 208.5 31.4C208.4 31.4 208.2 31.5 208.1 31.5 208 31.5 207.8 31.6 207.6 31.6 207.4 31.6 207 31.7 206.9 31.7ZM212.5 31.7C211.7 31.7 211 31.5 210.5 31 210 30.5 209.8 29.8 209.8 28.8L209.8 23.2 212 23.2 212 28.4C212 28.7 212 28.9 212.1 29.1 212.2 29.3 212.3 29.4 212.4 29.6 212.5 29.7 212.7 29.8 212.9 29.9 213.1 30 213.3 30 213.5 30 213.8 30 214.1 29.9 214.4 29.8 214.7 29.6 214.9 29.4 215 29.1 215.1 28.8 215.2 28.5 215.2 28.2L215.2 23.4 217.4 23.4 217.4 31.7 215.6 31.7 215.4 30.6 215.3 30.6C215.1 30.9 214.9 31.1 214.6 31.3 214.3 31.5 214 31.7 213.7 31.8 213.4 31.9 212.9 31.7 212.5 31.7ZM219.3 31.5 219.3 23.2 221.1 23.2 221.3 24.5 221.4 24.5C221.5 24.2 221.6 24 221.8 23.7 222 23.4 222.2 23.3 222.4 23.2 222.7 23.1 222.9 23 223.3 23 223.5 23 223.6 23 223.8 23.1 223.9 23.1 224.1 23.2 224.1 23.2L224.1 25.2 223.4 25.2C223.1 25.2 222.8 25.2 222.5 25.3 222.2 25.4 222 25.5 221.9 25.7 221.7 25.9 221.6 26.1 221.5 26.4 221.4 26.7 221.4 27 221.4 27.4L221.4 31.6 219.3 31.6ZM229 31.7C228.1 31.7 227.3 31.5 226.7 31.2 226.1 30.9 225.6 30.4 225.3 29.8 225 29.2 224.8 28.3 224.8 27.3 224.8 26.3 225 25.5 225.3 24.8 225.6 24.2 226.1 23.7 226.7 23.4 227.3 23.1 228.1 22.9 229 22.9 229.8 22.9 230.6 23.1 231.1 23.4 231.6 23.7 232.1 24.2 232.4 24.8 232.7 25.4 232.8 26.2 232.8 27.2L232.8 27.8 227 27.8C227 28.3 227.1 28.7 227.2 29 227.3 29.3 227.5 29.6 227.8 29.8 228.1 30 228.5 30 228.9 30 229.2 30 229.4 30 229.6 29.9 229.8 29.8 230 29.7 230.1 29.6 230.2 29.5 230.4 29.3 230.4 29.1 230.5 28.9 230.5 28.7 230.5 28.5L232.7 28.5C232.7 29 232.6 29.5 232.4 29.9 232.2 30.3 231.9 30.6 231.6 30.9 231.3 31.2 230.9 31.4 230.4 31.5 229.9 31.6 229.6 31.7 229 31.7ZM227.1 26.4 230.6 26.4C230.6 26.1 230.6 25.8 230.5 25.6L230.2 25C230.1 24.9 229.9 24.7 229.7 24.7 229.5 24.6 229.3 24.6 229 24.6 228.6 24.6 228.3 24.7 228 24.8 227.7 24.9 227.5 25.1 227.4 25.4 227.3 25.7 227.1 26 227.1 26.4ZM234.1 28.2 234.1 26.3 238.1 26.3 238.1 28.2 234.1 28.2ZM239.7 31.5 239.7 23.2 241.5 23.2 241.7 24.5 241.8 24.5C241.9 24.2 242 24 242.2 23.7 242.4 23.4 242.6 23.3 242.8 23.2 243.1 23.1 243.3 23 243.7 23 243.9 23 244 23 244.2 23.1 244.3 23.1 244.5 23.2 244.5 23.2L244.5 25.2 243.8 25.2C243.5 25.2 243.2 25.2 242.9 25.3 242.6 25.4 242.4 25.5 242.3 25.7 242.1 25.9 242 26.1 241.9 26.4 241.8 26.7 241.8 27 241.8 27.4L241.8 31.6 239.7 31.6ZM249.4 31.7C248.5 31.7 247.7 31.5 247.1 31.2 246.5 30.9 246 30.4 245.7 29.8 245.4 29.2 245.2 28.3 245.2 27.3 245.2 26.3 245.4 25.5 245.7 24.8 246 24.2 246.5 23.7 247.1 23.4 247.7 23.1 248.5 22.9 249.4 22.9 250.2 22.9 251 23.1 251.5 23.4 252 23.7 252.5 24.2 252.8 24.8 253.1 25.4 253.2 26.2 253.2 27.2L253.2 27.8 247.4 27.8C247.4 28.3 247.5 28.7 247.6 29 247.7 29.3 247.9 29.6 248.2 29.8 248.5 30 248.9 30 249.3 30 249.6 30 249.8 30 250 29.9 250.2 29.8 250.4 29.7 250.5 29.6 250.6 29.5 250.8 29.3 250.8 29.1 250.9 28.9 250.9 28.7 250.9 28.5L253.1 28.5C253.1 29 253 29.5 252.8 29.9 252.6 30.3 252.3 30.6 252 30.9 251.7 31.2 251.3 31.4 250.8 31.5 250.3 31.6 249.9 31.7 249.4 31.7ZM247.4 26.4 250.9 26.4C250.9 26.1 250.9 25.8 250.8 25.6L250.5 25C250.4 24.9 250.2 24.7 250 24.7 249.8 24.6 249.6 24.6 249.3 24.6 248.9 24.6 248.6 24.7 248.3 24.8 248 24.9 247.8 25.1 247.7 25.4 247.6 25.7 247.5 26 247.4 26.4ZM254.8 31.5 254.8 20 257 20 257 31.4 254.8 31.4ZM261.3 31.7C261 31.7 260.7 31.7 260.4 31.6L259.5 31.3C259.2 31.1 259 30.9 258.8 30.6 258.6 30.3 258.5 29.9 258.5 29.4 258.5 28.8 258.6 28.3 258.9 28 259.2 27.7 259.5 27.3 260 27.1 260.5 26.9 261 26.7 261.7 26.6 262.4 26.5 263.1 26.5 263.9 26.5L263.9 25.9C263.9 25.7 263.9 25.4 263.8 25.3 263.7 25.1 263.6 25 263.4 24.9 263.2 24.8 262.9 24.7 262.6 24.7 262.3 24.7 262 24.7 261.8 24.8 261.6 24.9 261.4 25 261.3 25.1 261.2 25.2 261.2 25.4 261.2 25.5L261.2 25.7 259 25.7 259 25.3C259 24.8 259.1 24.4 259.4 24 259.7 23.6 260.1 23.4 260.7 23.2 261.3 23 261.9 22.9 262.6 22.9 263.4 22.9 264 23 264.5 23.2 265 23.4 265.4 23.7 265.7 24.1 266 24.5 266.1 25 266.1 25.6L266.1 29.4C266.1 29.6 266.2 29.7 266.3 29.8 266.4 29.9 266.5 29.9 266.7 29.9L267.2 29.9 267.2 31.3C267.1 31.4 266.9 31.4 266.7 31.5 266.5 31.6 266.2 31.6 265.9 31.6 265.6 31.6 265.3 31.6 265.1 31.5 264.9 31.4 264.7 31.3 264.5 31.1 264.3 30.9 264.2 30.7 264.2 30.5L264 30.5C263.8 30.7 263.6 30.9 263.3 31.1 263 31.3 262.7 31.4 262.4 31.5 262.1 31.6 261.7 31.7 261.3 31.7ZM262 30C262.3 30 262.6 30 262.8 29.9 263 29.8 263.2 29.7 263.4 29.5 263.6 29.3 263.7 29.2 263.8 28.9 263.9 28.7 263.9 28.4 263.9 28.2L263.9 27.7C263.3 27.7 262.8 27.7 262.3 27.8 261.8 27.9 261.5 28 261.2 28.2 260.9 28.4 260.8 28.7 260.8 29 260.8 29.2 260.8 29.4 260.9 29.5 261 29.6 261.1 29.7 261.3 29.8 261.5 30 261.8 30 262 30ZM270.7 31.7C270.2 31.7 269.7 31.6 269.4 31.4 269.1 31.2 268.8 31 268.7 30.6 268.6 30.3 268.5 29.9 268.5 29.5L268.5 24.8 267.5 24.8 267.5 23.1 268.6 23.1 269 20.7 270.7 20.7 270.7 23.1 272.2 23.1 272.2 24.8 270.7 24.8 270.7 29.1C270.7 29.4 270.8 29.5 270.9 29.7 271 29.8 271.2 29.9 271.5 29.9L272.3 29.9 272.3 31.4C272.2 31.4 272 31.5 271.9 31.5 271.8 31.5 271.6 31.6 271.4 31.6 271.2 31.6 270.9 31.7 270.7 31.7ZM277.4 31.7C276.5 31.7 275.7 31.5 275.1 31.2 274.5 30.9 274 30.4 273.7 29.8 273.4 29.2 273.2 28.3 273.2 27.3 273.2 26.3 273.4 25.5 273.7 24.8 274 24.2 274.5 23.7 275.1 23.4 275.7 23.1 276.5 22.9 277.4 22.9 278.2 22.9 279 23.1 279.5 23.4 280 23.7 280.5 24.2 280.8 24.8 281.1 25.4 281.2 26.2 281.2 27.2L281.2 27.8 275.4 27.8C275.4 28.3 275.5 28.7 275.6 29 275.7 29.3 275.9 29.6 276.2 29.8 276.5 30 276.9 30 277.3 30 277.6 30 277.8 30 278 29.9 278.2 29.8 278.4 29.7 278.5 29.6 278.6 29.5 278.8 29.3 278.8 29.1 278.9 28.9 278.9 28.7 278.9 28.5L281.1 28.5C281.1 29 281 29.5 280.8 29.9 280.6 30.3 280.3 30.6 280 30.9 279.7 31.2 279.3 31.4 278.8 31.5 278.3 31.6 278 31.7 277.4 31.7ZM275.5 26.4 279 26.4C279 26.1 279 25.8 278.9 25.6L278.6 25C278.5 24.9 278.3 24.7 278.1 24.7 277.9 24.6 277.7 24.6 277.4 24.6 277 24.6 276.7 24.7 276.4 24.8 276.1 24.9 275.9 25.1 275.8 25.4 275.7 25.7 275.6 26 275.5 26.4ZM285.9 31.7C285.2 31.7 284.6 31.5 284.1 31.2 283.6 30.9 283.2 30.4 282.9 29.8 282.6 29.2 282.5 28.3 282.5 27.3 282.5 26.3 282.6 25.5 282.9 24.8 283.2 24.2 283.6 23.7 284.1 23.4 284.6 23.1 285.2 22.9 285.8 22.9 286.2 22.9 286.5 22.9 286.8 23 287.1 23.1 287.4 23.2 287.6 23.4L288.2 24 288.3 24 288.3 20 290.5 20 290.5 31.4 288.7 31.4 288.5 30.3 288.4 30.3C288.1 30.7 287.8 31.1 287.3 31.3 286.9 31.6 286.4 31.7 285.9 31.7ZM286.5 29.9C286.9 29.9 287.2 29.8 287.5 29.6 287.8 29.4 288 29.1 288.1 28.8 288.2 28.4 288.3 28 288.3 27.5L288.3 27.2C288.3 26.8 288.3 26.5 288.2 26.2 288.1 25.9 288 25.6 287.9 25.4 287.8 25.2 287.6 25 287.3 24.9 287 24.8 286.8 24.7 286.5 24.7 286.1 24.7 285.7 24.8 285.4 25 285.1 25.2 284.9 25.4 284.8 25.8 284.7 26.2 284.6 26.6 284.6 27.1L284.6 27.5C284.6 28 284.7 28.5 284.8 28.8 284.9 29.1 285.1 29.4 285.4 29.6 285.8 29.8 286.1 29.9 286.5 29.9ZM83.2 48.6 83.2 37.7 91.2 37.7 91.2 39.6 85.5 39.6 85.5 42.3 90.5 42.3 90.5 44.2 85.5 44.2 85.5 48.5 83.2 48.5ZM92.8 39 92.8 37.1 95 37.1 95 39 92.8 39ZM92.8 48.6 92.8 40.3 95 40.3 95 48.6 92.8 48.6ZM97.1 48.6 97.1 40.3 98.9 40.3 99.1 41.4 99.2 41.4C99.4 41.1 99.6 40.9 99.9 40.7 100.2 40.5 100.5 40.3 100.8 40.2 101.1 40.1 101.5 40 101.9 40 102.4 40 102.9 40.1 103.3 40.3 103.7 40.5 104 40.8 104.3 41.2 104.5 41.6 104.6 42.2 104.6 42.9L104.6 48.5 102.4 48.5 102.4 43.3C102.4 43 102.4 42.8 102.3 42.6 102.2 42.4 102.1 42.3 102 42.1 101.9 42 101.7 41.9 101.5 41.8 101.3 41.7 101.1 41.7 100.9 41.7 100.6 41.7 100.3 41.8 100 41.9 99.7 42.1 99.5 42.3 99.4 42.5 99.3 42.8 99.2 43.1 99.2 43.5L99.2 48.4 97.1 48.4ZM108.8 48.8C108.5 48.8 108.2 48.8 107.9 48.7L107 48.4C106.7 48.2 106.5 48 106.3 47.7 106.1 47.4 106 47 106 46.5 106 45.9 106.1 45.4 106.4 45.1 106.7 44.8 107 44.4 107.5 44.2 108 44 108.5 43.8 109.2 43.7 109.9 43.6 110.6 43.6 111.4 43.6L111.4 43C111.4 42.8 111.4 42.5 111.3 42.4 111.2 42.2 111.1 42.1 110.9 42 110.7 41.9 110.4 41.8 110.1 41.8 109.8 41.8 109.5 41.8 109.3 41.9 109.1 42 108.9 42.1 108.8 42.2 108.7 42.3 108.7 42.5 108.7 42.6L108.7 42.8 106.6 42.8 106.6 42.4C106.6 41.9 106.7 41.5 107 41.1 107.3 40.7 107.7 40.5 108.3 40.3 108.9 40.1 109.5 40 110.2 40 111 40 111.6 40.1 112.1 40.3 112.6 40.5 113 40.8 113.3 41.2 113.6 41.6 113.7 42.1 113.7 42.7L113.7 46.5C113.7 46.7 113.8 46.8 113.9 46.9 114 47 114.1 47 114.3 47L114.8 47 114.8 48.4C114.7 48.5 114.5 48.5 114.3 48.6 114.1 48.7 113.8 48.7 113.5 48.7 113.2 48.7 112.9 48.7 112.7 48.6 112.5 48.5 112.3 48.4 112.1 48.2 111.9 48 111.8 47.8 111.8 47.6L111.7 47.6C111.5 47.8 111.3 48 111 48.2 110.7 48.4 110.4 48.5 110.1 48.6 109.6 48.7 109.2 48.8 108.8 48.8ZM109.5 47.1C109.8 47.1 110.1 47.1 110.3 47 110.5 46.9 110.7 46.8 110.9 46.6 111.1 46.4 111.2 46.3 111.3 46 111.4 45.8 111.4 45.5 111.4 45.3L111.4 44.8C110.8 44.8 110.3 44.8 109.8 44.9 109.3 45 109 45.1 108.7 45.3 108.4 45.5 108.3 45.8 108.3 46.1 108.3 46.3 108.3 46.5 108.4 46.6 108.5 46.7 108.6 46.8 108.8 46.9 109.1 47.1 109.3 47.1 109.5 47.1ZM115.8 48.6 115.8 40.3 117.6 40.3 117.8 41.4 117.9 41.4C118.1 41.1 118.3 40.9 118.6 40.7 118.9 40.5 119.2 40.3 119.5 40.2 119.8 40.1 120.2 40 120.6 40 121.1 40 121.6 40.1 122 40.3 122.4 40.5 122.7 40.8 123 41.2 123.2 41.6 123.3 42.2 123.3 42.9L123.3 48.5 121.1 48.5 121.1 43.3C121.1 43 121.1 42.8 121 42.6 120.9 42.4 120.8 42.3 120.7 42.1 120.6 42 120.4 41.9 120.2 41.8 120 41.7 119.8 41.7 119.6 41.7 119.3 41.7 119 41.8 118.7 41.9 118.4 42.1 118.2 42.3 118.1 42.5 118 42.8 117.9 43.1 117.9 43.5L117.9 48.4 115.8 48.4ZM129 48.8C128.1 48.8 127.4 48.6 126.8 48.3 126.2 48 125.7 47.5 125.4 46.9 125.1 46.3 124.9 45.4 124.9 44.5 124.9 43.5 125.1 42.7 125.4 42 125.7 41.4 126.2 40.9 126.8 40.6 127.4 40.3 128.1 40.1 129 40.1 129.6 40.1 130.1 40.2 130.5 40.3 131 40.4 131.4 40.6 131.7 40.9 132 41.2 132.3 41.5 132.5 42 132.7 42.4 132.8 42.9 132.8 43.5L130.6 43.5C130.6 43.1 130.5 42.8 130.4 42.6 130.3 42.4 130.1 42.2 129.9 42 129.7 41.9 129.4 41.8 129 41.8 128.6 41.8 128.2 41.9 128 42.1 127.8 42.3 127.5 42.6 127.4 42.9 127.3 43.3 127.2 43.7 127.2 44.3L127.2 44.7C127.2 45.2 127.3 45.7 127.4 46.1 127.5 46.5 127.7 46.7 128 46.9 128.3 47.1 128.6 47.2 129.1 47.2 129.5 47.2 129.8 47.1 130 47 130.2 46.9 130.4 46.7 130.5 46.4 130.6 46.1 130.7 45.8 130.7 45.5L132.8 45.5C132.8 46 132.7 46.5 132.5 46.9 132.3 47.3 132.1 47.7 131.7 48 131.4 48.3 131 48.5 130.5 48.6 130 48.7 129.5 48.8 129 48.8ZM134.4 39 134.4 37.1 136.6 37.1 136.6 39 134.4 39ZM134.4 48.6 134.4 40.3 136.6 40.3 136.6 48.6 134.4 48.6ZM140.8 48.8C140.5 48.8 140.2 48.8 139.9 48.7L139 48.4C138.7 48.2 138.5 48 138.3 47.7 138.1 47.4 138 47 138 46.5 138 45.9 138.1 45.4 138.4 45.1 138.7 44.8 139 44.4 139.5 44.2 140 44 140.5 43.8 141.2 43.7 141.9 43.6 142.6 43.6 143.4 43.6L143.4 43C143.4 42.8 143.4 42.5 143.3 42.4 143.2 42.2 143.1 42.1 142.9 42 142.7 41.9 142.4 41.8 142.1 41.8 141.8 41.8 141.5 41.8 141.3 41.9 141.1 42 140.9 42.1 140.8 42.2 140.7 42.3 140.7 42.5 140.7 42.6L140.7 42.8 138.6 42.8 138.6 42.4C138.6 41.9 138.7 41.5 139 41.1 139.3 40.7 139.7 40.5 140.3 40.3 140.9 40.1 141.5 40 142.2 40 143 40 143.6 40.1 144.1 40.3 144.6 40.5 145 40.8 145.3 41.2 145.6 41.6 145.7 42.1 145.7 42.7L145.7 46.5C145.7 46.7 145.8 46.8 145.9 46.9 146 47 146.1 47 146.3 47L146.8 47 146.8 48.4C146.7 48.5 146.5 48.5 146.3 48.6 146.1 48.7 145.8 48.7 145.5 48.7 145.2 48.7 144.9 48.7 144.7 48.6 144.5 48.5 144.3 48.4 144.1 48.2 143.9 48 143.8 47.8 143.8 47.6L143.7 47.6C143.5 47.8 143.3 48 143 48.2 142.7 48.4 142.4 48.5 142.1 48.6 141.6 48.7 141.2 48.8 140.8 48.8ZM141.5 47.1C141.8 47.1 142.1 47.1 142.3 47 142.5 46.9 142.7 46.8 142.9 46.6 143.1 46.4 143.2 46.3 143.3 46 143.4 45.8 143.4 45.5 143.4 45.3L143.4 44.8C142.8 44.8 142.3 44.8 141.8 44.9 141.3 45 141 45.1 140.7 45.3 140.4 45.5 140.3 45.8 140.3 46.1 140.3 46.3 140.3 46.5 140.4 46.6 140.5 46.7 140.6 46.8 140.8 46.9 141.1 47.1 141.3 47.1 141.5 47.1ZM147.8 48.6 147.8 37.1 150 37.1 150 48.5 147.8 48.5ZM155.3 48.6 155.3 37.7 159.7 37.7C160.8 37.7 161.8 37.9 162.6 38.3 163.4 38.7 164 39.3 164.4 40.1 164.8 40.9 165 41.9 165 43.2 165 44.4 164.8 45.5 164.4 46.3 164 47.1 163.4 47.7 162.6 48.1 161.8 48.5 160.8 48.7 159.7 48.7L155.3 48.7ZM157.7 46.6 159.8 46.6C160.3 46.6 160.7 46.5 161.1 46.4 161.5 46.3 161.8 46.1 162 45.8 162.2 45.5 162.4 45.2 162.6 44.8 162.7 44.4 162.8 43.9 162.8 43.4L162.8 42.9C162.8 42.4 162.7 41.9 162.6 41.5 162.5 41.1 162.3 40.8 162 40.5 161.8 40.2 161.5 40 161.1 39.9 160.7 39.8 160.3 39.7 159.8 39.7L157.7 39.7 157.7 46.6ZM166.8 39 166.8 37.1 169 37.1 169 39 166.8 39ZM166.8 48.6 166.8 40.3 169 40.3 169 48.6 166.8 48.6ZM174.4 48.8C173.8 48.8 173.3 48.7 172.8 48.6 172.3 48.5 171.9 48.3 171.6 48.1 171.3 47.9 171 47.6 170.8 47.3 170.6 47 170.5 46.6 170.5 46.2L170.5 46 172.6 46 172.6 46.2C172.6 46.5 172.7 46.7 172.9 46.8 173.1 46.9 173.3 47.1 173.5 47.2 173.8 47.3 174 47.3 174.3 47.3 174.6 47.3 174.8 47.3 175 47.2 175.2 47.2 175.4 47.1 175.6 46.9 175.8 46.8 175.8 46.6 175.8 46.4 175.8 46.1 175.7 46 175.5 45.8 175.3 45.7 175 45.6 174.7 45.5 174.4 45.4 174 45.3 173.6 45.2 173.2 45.1 172.9 45 172.5 44.9 172.1 44.8 171.8 44.6 171.5 44.5 171.2 44.3 171 44.1 170.8 43.8 170.6 43.5 170.5 43.1 170.5 42.7 170.5 42.3 170.6 41.9 170.8 41.6 171 41.3 171.3 41 171.6 40.8 171.9 40.6 172.3 40.4 172.8 40.3 173.2 40.2 173.7 40.1 174.2 40.1 174.7 40.1 175.1 40.2 175.6 40.3 176 40.4 176.4 40.5 176.7 40.7 177 40.9 177.3 41.1 177.4 41.4 177.6 41.7 177.7 42 177.7 42.4L177.7 42.7 175.6 42.7 175.6 42.6C175.6 42.4 175.5 42.2 175.4 42.1 175.3 42 175.1 41.9 174.9 41.8 174.7 41.7 174.4 41.7 174.1 41.7L173.5 41.7C173.3 41.7 173.2 41.8 173 41.8 172.9 41.9 172.8 41.9 172.7 42 172.6 42.1 172.6 42.2 172.6 42.3 172.6 42.5 172.7 42.6 172.8 42.7 172.9 42.8 173.2 42.9 173.4 43 173.7 43.1 173.9 43.2 174.2 43.2L175.4 43.5C175.8 43.6 176.2 43.7 176.6 43.9 177 44.1 177.2 44.3 177.5 44.6 177.7 44.9 177.8 45.3 177.8 45.9 177.8 46.4 177.7 46.8 177.5 47.2 177.3 47.5 177 47.8 176.7 48 176.4 48.2 175.9 48.4 175.5 48.5 175.4 48.7 174.9 48.8 174.4 48.8ZM183.5 48.8C182.6 48.8 181.9 48.6 181.3 48.3 180.7 48 180.2 47.5 179.9 46.9 179.6 46.3 179.4 45.4 179.4 44.5 179.4 43.5 179.6 42.7 179.9 42 180.2 41.4 180.7 40.9 181.3 40.6 181.9 40.3 182.6 40.1 183.5 40.1 184.1 40.1 184.6 40.2 185 40.3 185.5 40.4 185.9 40.6 186.2 40.9 186.5 41.2 186.8 41.5 187 42 187.2 42.4 187.3 42.9 187.3 43.5L185.1 43.5C185.1 43.1 185 42.8 184.9 42.6 184.8 42.4 184.6 42.2 184.4 42 184.2 41.9 183.9 41.8 183.5 41.8 183.1 41.8 182.7 41.9 182.5 42.1 182.3 42.3 182 42.6 181.9 42.9 181.8 43.3 181.7 43.7 181.7 44.3L181.7 44.7C181.7 45.2 181.8 45.7 181.9 46.1 182 46.5 182.2 46.7 182.5 46.9 182.8 47.1 183.1 47.2 183.6 47.2 184 47.2 184.3 47.1 184.5 47 184.7 46.9 184.9 46.7 185 46.4 185.1 46.1 185.2 45.8 185.2 45.5L187.3 45.5C187.3 46 187.2 46.5 187 46.9 186.8 47.3 186.6 47.7 186.2 48 185.9 48.3 185.5 48.5 185 48.6 184.6 48.7 184.1 48.8 183.5 48.8ZM188.9 48.6 188.9 37.1 191.1 37.1 191.1 48.5 188.9 48.5ZM197 48.8C196.1 48.8 195.3 48.6 194.7 48.3 194.1 48 193.6 47.5 193.3 46.9 193 46.3 192.8 45.4 192.8 44.5 192.8 43.5 193 42.7 193.3 42 193.6 41.3 194.1 40.9 194.7 40.6 195.3 40.3 196.1 40.1 197 40.1 197.9 40.1 198.7 40.3 199.3 40.6 199.9 40.9 200.4 41.4 200.7 42 201 42.6 201.2 43.5 201.2 44.5 201.2 45.5 201 46.3 200.7 46.9 200.4 47.5 199.9 48 199.3 48.3 198.7 48.6 197.9 48.8 197 48.8ZM197 47C197.5 47 197.9 46.9 198.2 46.7 198.5 46.5 198.7 46.2 198.8 45.9 198.9 45.5 199 45.1 199 44.5L199 44.1C199 43.6 198.9 43.1 198.8 42.7 198.7 42.3 198.4 42.1 198.2 41.9 197.9 41.7 197.5 41.6 197 41.6 196.5 41.6 196.1 41.7 195.9 41.9 195.6 42.1 195.4 42.4 195.3 42.7 195.2 43 195.1 43.5 195.1 44.1L195.1 44.5C195.1 45 195.2 45.5 195.3 45.9 195.4 46.3 195.7 46.5 195.9 46.7 196.1 47 196.5 47 197 47ZM206.2 48.8C205.6 48.8 205.1 48.7 204.6 48.6 204.1 48.5 203.7 48.3 203.4 48.1 203.1 47.9 202.8 47.6 202.6 47.3 202.4 47 202.3 46.6 202.3 46.2L202.3 46 204.4 46 204.4 46.2C204.4 46.5 204.5 46.7 204.7 46.8 204.9 46.9 205.1 47.1 205.3 47.2 205.6 47.3 205.8 47.3 206.1 47.3 206.4 47.3 206.6 47.3 206.8 47.2 207 47.2 207.2 47.1 207.4 46.9 207.6 46.8 207.6 46.6 207.6 46.4 207.6 46.1 207.5 46 207.3 45.8 207.1 45.7 206.8 45.6 206.5 45.5 206.2 45.4 205.8 45.3 205.4 45.2 205 45.1 204.7 45 204.3 44.9 203.9 44.8 203.6 44.6 203.3 44.5 203 44.3 202.8 44.1 202.6 43.8 202.4 43.5 202.3 43.1 202.3 42.7 202.3 42.3 202.4 41.9 202.6 41.6 202.8 41.3 203.1 41 203.4 40.8 203.7 40.6 204.1 40.4 204.6 40.3 205 40.2 205.5 40.1 206 40.1 206.5 40.1 206.9 40.2 207.4 40.3 207.8 40.4 208.2 40.5 208.5 40.7 208.8 40.9 209.1 41.1 209.2 41.4 209.4 41.7 209.5 42 209.5 42.4L209.5 42.7 207.4 42.7 207.4 42.6C207.4 42.4 207.3 42.2 207.2 42.1 207.1 42 206.9 41.9 206.7 41.8 206.5 41.7 206.2 41.7 205.9 41.7L205.3 41.7C205.1 41.7 205 41.8 204.8 41.8 204.7 41.9 204.6 41.9 204.5 42 204.4 42.1 204.4 42.2 204.4 42.3 204.4 42.5 204.5 42.6 204.6 42.7 204.7 42.8 205 42.9 205.2 43 205.5 43.1 205.7 43.2 206 43.2L207.2 43.5C207.6 43.6 208 43.7 208.4 43.9 208.8 44.1 209 44.3 209.3 44.6 209.5 44.9 209.6 45.3 209.6 45.9 209.6 46.4 209.5 46.8 209.3 47.2 209.1 47.5 208.8 47.8 208.5 48 208.2 48.2 207.7 48.4 207.3 48.5 207.2 48.7 206.7 48.8 206.2 48.8ZM214.3 48.8C213.5 48.8 212.8 48.6 212.3 48.1 211.8 47.6 211.6 46.9 211.6 45.9L211.6 40.3 213.8 40.3 213.8 45.5C213.8 45.8 213.8 46 213.9 46.2 214 46.4 214.1 46.5 214.2 46.7 214.3 46.8 214.5 46.9 214.7 47 214.9 47.1 215.1 47.1 215.3 47.1 215.6 47.1 215.9 47 216.2 46.9 216.5 46.7 216.7 46.5 216.8 46.2 216.9 45.9 217 45.6 217 45.3L217 40.5 219.2 40.5 219.2 48.8 217.4 48.8 217.2 47.7 217.1 47.7C216.9 48 216.7 48.2 216.4 48.4 216.1 48.6 215.8 48.8 215.5 48.9 215.2 49 214.7 48.8 214.3 48.8ZM221.2 48.6 221.2 40.3 223 40.3 223.2 41.6 223.3 41.6C223.4 41.3 223.5 41.1 223.7 40.8 223.9 40.5 224.1 40.4 224.3 40.3 224.6 40.2 224.8 40.1 225.2 40.1 225.4 40.1 225.5 40.1 225.7 40.2 225.8 40.2 226 40.3 226 40.3L226 42.3 225.3 42.3C225 42.3 224.7 42.3 224.4 42.4 224.1 42.5 223.9 42.6 223.8 42.8 223.6 43 223.5 43.2 223.4 43.5 223.3 43.8 223.3 44.1 223.3 44.5L223.3 48.7 221.2 48.7ZM230.8 48.8C229.9 48.8 229.1 48.6 228.5 48.3 227.9 48 227.4 47.5 227.1 46.9 226.8 46.3 226.6 45.4 226.6 44.4 226.6 43.4 226.8 42.6 227.1 41.9 227.4 41.3 227.9 40.8 228.5 40.5 229.1 40.2 229.9 40 230.8 40 231.6 40 232.4 40.2 232.9 40.5 233.4 40.8 233.9 41.3 234.2 41.9 234.5 42.5 234.6 43.3 234.6 44.3L234.6 44.9 228.8 44.9C228.8 45.4 228.9 45.8 229 46.1 229.1 46.4 229.3 46.7 229.6 46.9 229.9 47.1 230.3 47.1 230.7 47.1 231 47.1 231.2 47.1 231.4 47 231.6 46.9 231.8 46.8 231.9 46.7 232 46.6 232.2 46.4 232.2 46.2 232.3 46 232.3 45.8 232.3 45.6L234.5 45.6C234.5 46.1 234.4 46.6 234.2 47 234 47.4 233.7 47.7 233.4 48 233.1 48.3 232.7 48.5 232.2 48.6 231.7 48.7 231.4 48.8 230.8 48.8ZM228.9 43.5 232.4 43.5C232.4 43.2 232.4 42.9 232.3 42.7L232 42.1C231.9 42 231.7 41.8 231.5 41.8 231.3 41.7 231.1 41.7 230.8 41.7 230.4 41.7 230.1 41.8 229.8 41.9 229.5 42 229.3 42.2 229.2 42.5 229.1 42.8 228.9 43.1 228.9 43.5ZM239.6 48.8C239 48.8 238.5 48.7 238 48.6 237.5 48.5 237.1 48.3 236.8 48.1 236.5 47.9 236.2 47.6 236 47.3 235.8 47 235.7 46.6 235.7 46.2L235.7 46 237.8 46 237.8 46.2C237.8 46.5 237.9 46.7 238.1 46.8 238.3 46.9 238.5 47.1 238.7 47.2 239 47.3 239.2 47.3 239.5 47.3 239.8 47.3 240 47.3 240.2 47.2 240.4 47.2 240.6 47.1 240.8 46.9 241 46.8 241 46.6 241 46.4 241 46.1 240.9 46 240.7 45.8 240.5 45.7 240.2 45.6 239.9 45.5 239.6 45.4 239.2 45.3 238.8 45.2 238.4 45.1 238.1 45 237.7 44.9 237.3 44.8 237 44.6 236.7 44.5 236.4 44.3 236.2 44.1 236 43.8 235.8 43.5 235.7 43.1 235.7 42.7 235.7 42.3 235.8 41.9 236 41.6 236.2 41.3 236.5 41 236.8 40.8 237.1 40.6 237.5 40.4 238 40.3 238.4 40.2 238.9 40.1 239.4 40.1 239.9 40.1 240.3 40.2 240.8 40.3 241.2 40.4 241.6 40.5 241.9 40.7 242.2 40.9 242.5 41.1 242.6 41.4 242.8 41.7 242.9 42 242.9 42.4L242.9 42.7 240.8 42.7 240.8 42.6C240.8 42.4 240.7 42.2 240.6 42.1 240.5 42 240.3 41.9 240.1 41.8 239.9 41.7 239.6 41.7 239.3 41.7L238.7 41.7C238.5 41.7 238.4 41.8 238.2 41.8 238.1 41.9 238 41.9 237.9 42 237.8 42.1 237.8 42.2 237.8 42.3 237.8 42.5 237.9 42.6 238 42.7 238.1 42.8 238.4 42.9 238.6 43 238.9 43.1 239.1 43.2 239.4 43.2L240.6 43.5C241 43.6 241.4 43.7 241.8 43.9 242.2 44.1 242.4 44.3 242.7 44.6 242.9 44.9 243 45.3 243 45.9 243 46.4 242.9 46.8 242.7 47.2 242.5 47.5 242.2 47.8 241.9 48 241.6 48.2 241.1 48.4 240.7 48.5 240.7 48.7 240.2 48.8 239.6 48.8ZM23.8 9.2 17.7 9.2 17.7 25.3 13.5 25.3 13.5 9.2 7.5 9.2 7.5 5.6 23.8 5.6 23.8 9.2ZM0 31.6 31.6 31.6 31.6 0 0 0 0 31.6ZM58.4 25.3 54.4 25.3 46.8 14.5C46.6 14.2 46.3 13.8 46.1 13.4 45.9 13 45.7 12.7 45.7 12.6L45.6 12.7 45.6 25.3 41.6 25.3 41.6 5.6 45.6 5.6 53.2 16.3C53.4 16.5 53.6 16.8 53.8 17.3 54.1 17.8 54.2 18.1 54.3 18.2L54.4 18.1 54.4 5.6 58.4 5.6 58.4 25.3ZM34.4 31.6 66 31.6 66 0 34.4 0 34.4 31.6ZM23.1 43.5 13 43.5 13 48.3 22 48.3 22 51.8 13 51.8 13 59.6 8.8 59.6 8.8 40 23.1 40 23.1 43.5ZM0 66 31.6 66 31.6 34.4 0 34.4 0 66ZM56.9 57.2C55.3 58.8 52.9 59.7 49.9 59.7L41.8 59.7 41.8 40 50 40C53 40 55.3 40.8 57 42.5 58.6 44.1 59.5 46.6 59.5 49.9 59.4 53.1 58.6 55.6 56.9 57.2M34.4 66 66 66 66 34.4 34.4 34.4 34.4 66Z" fill="#667191"/><path d="M50 43.5 46 43.5 46 56.1 50 56.1C51.7 56.1 53 55.6 53.8 54.6 54.7 53.6 55.1 52.1 55.1 50.3L55.1 49.4C55.1 47.5 54.7 46.1 53.8 45.1 52.9 44 51.6 43.5 50 43.5" fill="#667191"/></svg>